<svg xmlns="http://www.w3.org/2000/svg" width="400" height="275" fill="none" viewBox="0 0 400 275"><rect width="399" height="274" x=".5" y=".5" fill="#09090B" fill-opacity=".5" rx="9.5"/><rect width="399" height="274" x=".5" y=".5" stroke="#424242" rx="9.5"/><rect width="171" height="12" x="24" y="42" fill="#D9D9D9" rx="6"/><rect width="50" height="12" x="307" y="42" fill="#D9D9D9" rx="6"/><rect width="333" height="10" x="24" y="80" fill="#8E8E8E" rx="5"/><rect width="226" height="10" x="24" y="102" fill="#8E8E8E" rx="5"/><rect width="323" height="36" x="39" y="149" fill="#FFFEFE" rx="10"/><path fill="#000" d="M174.001 174V159.455H183.802V161.99H177.076V165.456H183.297V167.991H177.076V171.464H183.83V174H174.001ZM189.215 167.693V174H186.19V163.091H189.073V165.016H189.201C189.443 164.381 189.847 163.879 190.416 163.51C190.984 163.136 191.673 162.949 192.482 162.949C193.24 162.949 193.901 163.115 194.464 163.446C195.027 163.777 195.465 164.251 195.778 164.866C196.09 165.477 196.247 166.206 196.247 167.054V174H193.221V167.594C193.226 166.926 193.055 166.405 192.71 166.031C192.364 165.652 191.888 165.463 191.282 165.463C190.875 165.463 190.515 165.551 190.203 165.726C189.895 165.901 189.653 166.157 189.478 166.493C189.308 166.824 189.22 167.224 189.215 167.693ZM198.631 174V163.091H201.564V164.994H201.678C201.877 164.317 202.211 163.806 202.68 163.46C203.148 163.11 203.688 162.935 204.299 162.935C204.45 162.935 204.614 162.944 204.789 162.963C204.964 162.982 205.118 163.008 205.251 163.041V165.726C205.108 165.683 204.912 165.645 204.661 165.612C204.41 165.579 204.18 165.562 203.972 165.562C203.527 165.562 203.129 165.66 202.779 165.854C202.433 166.043 202.159 166.308 201.955 166.649C201.756 166.99 201.657 167.383 201.657 167.828V174H198.631ZM211.236 174.213C210.133 174.213 209.179 173.979 208.374 173.51C207.574 173.036 206.956 172.378 206.52 171.536C206.084 170.688 205.867 169.705 205.867 168.588C205.867 167.461 206.084 166.476 206.52 165.634C206.956 164.786 207.574 164.128 208.374 163.659C209.179 163.186 210.133 162.949 211.236 162.949C212.339 162.949 213.291 163.186 214.091 163.659C214.896 164.128 215.516 164.786 215.952 165.634C216.387 166.476 216.605 167.461 216.605 168.588C216.605 169.705 216.387 170.688 215.952 171.536C215.516 172.378 214.896 173.036 214.091 173.51C213.291 173.979 212.339 174.213 211.236 174.213ZM211.25 171.869C211.752 171.869 212.171 171.727 212.507 171.443C212.843 171.154 213.097 170.761 213.267 170.264C213.442 169.767 213.53 169.201 213.53 168.567C213.53 167.932 213.442 167.366 213.267 166.869C213.097 166.372 212.843 165.979 212.507 165.69C212.171 165.402 211.752 165.257 211.25 165.257C210.744 165.257 210.317 165.402 209.972 165.69C209.631 165.979 209.373 166.372 209.198 166.869C209.027 167.366 208.942 167.932 208.942 168.567C208.942 169.201 209.027 169.767 209.198 170.264C209.373 170.761 209.631 171.154 209.972 171.443C210.317 171.727 210.744 171.869 211.25 171.869ZM221.598 159.455V174H218.573V159.455H221.598ZM227.047 159.455V174H224.022V159.455H227.047Z"/><rect width="323" height="36" x="39" y="211" fill="#09090B" rx="10"/><path fill="#fff" d="M137.644 221.455L141.16 232.506H141.295L144.817 221.455H148.226L143.212 236H139.249L134.228 221.455H137.644ZM149.92 236V225.091H152.946V236H149.92ZM151.44 223.685C150.99 223.685 150.604 223.536 150.282 223.237C149.965 222.934 149.807 222.572 149.807 222.151C149.807 221.734 149.965 221.376 150.282 221.078C150.604 220.775 150.99 220.624 151.44 220.624C151.89 220.624 152.273 220.775 152.591 221.078C152.913 221.376 153.074 221.734 153.074 222.151C153.074 222.572 152.913 222.934 152.591 223.237C152.273 223.536 151.89 223.685 151.44 223.685ZM160.341 236.213C159.219 236.213 158.253 235.986 157.443 235.531C156.638 235.072 156.018 234.423 155.583 233.585C155.147 232.742 154.929 231.746 154.929 230.595C154.929 229.473 155.147 228.488 155.583 227.641C156.018 226.793 156.631 226.133 157.422 225.659C158.218 225.186 159.15 224.949 160.22 224.949C160.94 224.949 161.61 225.065 162.23 225.297C162.855 225.524 163.4 225.867 163.864 226.327C164.333 226.786 164.697 227.364 164.958 228.06C165.218 228.751 165.348 229.561 165.348 230.489V231.32H156.137V229.445H162.5C162.5 229.009 162.405 228.623 162.216 228.287C162.027 227.951 161.764 227.688 161.428 227.499C161.096 227.304 160.71 227.207 160.27 227.207C159.811 227.207 159.404 227.314 159.048 227.527C158.698 227.735 158.423 228.017 158.225 228.372C158.026 228.723 157.924 229.113 157.919 229.544V231.327C157.919 231.866 158.019 232.333 158.218 232.726C158.421 233.119 158.708 233.422 159.077 233.635C159.446 233.848 159.884 233.955 160.391 233.955C160.727 233.955 161.035 233.907 161.314 233.812C161.593 233.718 161.833 233.576 162.031 233.386C162.23 233.197 162.382 232.965 162.486 232.69L165.284 232.875C165.142 233.547 164.851 234.134 164.411 234.636C163.975 235.134 163.412 235.522 162.72 235.801C162.034 236.076 161.241 236.213 160.341 236.213ZM169.396 236L166.428 225.091H169.489L171.179 232.42H171.279L173.04 225.091H176.044L177.834 232.378H177.926L179.588 225.091H182.642L179.681 236H176.477L174.602 229.139H174.468L172.593 236H169.396ZM201.776 226.547H198.665C198.608 226.144 198.492 225.787 198.317 225.474C198.142 225.157 197.917 224.887 197.642 224.665C197.368 224.442 197.05 224.272 196.691 224.153C196.335 224.035 195.95 223.976 195.533 223.976C194.78 223.976 194.124 224.163 193.566 224.537C193.007 224.906 192.574 225.446 192.266 226.156C191.958 226.862 191.804 227.719 191.804 228.727C191.804 229.764 191.958 230.635 192.266 231.341C192.578 232.046 193.014 232.579 193.573 232.939C194.131 233.299 194.778 233.479 195.512 233.479C195.923 233.479 196.305 233.424 196.655 233.315C197.01 233.206 197.325 233.048 197.6 232.839C197.874 232.626 198.102 232.368 198.281 232.065C198.466 231.762 198.594 231.417 198.665 231.028L201.776 231.043C201.695 231.71 201.494 232.354 201.172 232.974C200.855 233.59 200.426 234.142 199.887 234.629C199.352 235.112 198.712 235.496 197.969 235.78C197.23 236.059 196.395 236.199 195.462 236.199C194.164 236.199 193.004 235.905 191.982 235.318C190.964 234.731 190.159 233.881 189.567 232.768C188.98 231.656 188.686 230.309 188.686 228.727C188.686 227.141 188.985 225.792 189.581 224.679C190.178 223.566 190.987 222.719 192.01 222.136C193.033 221.549 194.183 221.256 195.462 221.256C196.305 221.256 197.086 221.374 197.806 221.611C198.53 221.848 199.172 222.193 199.73 222.648C200.289 223.098 200.744 223.649 201.094 224.303C201.449 224.956 201.676 225.704 201.776 226.547ZM208.853 236.213C207.75 236.213 206.796 235.979 205.991 235.51C205.191 235.036 204.573 234.378 204.137 233.536C203.702 232.688 203.484 231.705 203.484 230.588C203.484 229.461 203.702 228.476 204.137 227.634C204.573 226.786 205.191 226.128 205.991 225.659C206.796 225.186 207.75 224.949 208.853 224.949C209.956 224.949 210.908 225.186 211.708 225.659C212.513 226.128 213.133 226.786 213.569 227.634C214.005 228.476 214.222 229.461 214.222 230.588C214.222 231.705 214.005 232.688 213.569 233.536C213.133 234.378 212.513 235.036 211.708 235.51C210.908 235.979 209.956 236.213 208.853 236.213ZM208.867 233.869C209.369 233.869 209.788 233.727 210.124 233.443C210.461 233.154 210.714 232.761 210.884 232.264C211.06 231.767 211.147 231.201 211.147 230.567C211.147 229.932 211.06 229.366 210.884 228.869C210.714 228.372 210.461 227.979 210.124 227.69C209.788 227.402 209.369 227.257 208.867 227.257C208.361 227.257 207.935 227.402 207.589 227.69C207.248 227.979 206.99 228.372 206.815 228.869C206.644 229.366 206.559 229.932 206.559 230.567C206.559 231.201 206.644 231.767 206.815 232.264C206.99 232.761 207.248 233.154 207.589 233.443C207.935 233.727 208.361 233.869 208.867 233.869ZM219.215 229.693V236H216.19V225.091H219.073V227.016H219.201C219.443 226.381 219.847 225.879 220.416 225.51C220.984 225.136 221.673 224.949 222.482 224.949C223.24 224.949 223.901 225.115 224.464 225.446C225.027 225.777 225.465 226.251 225.778 226.866C226.09 227.477 226.247 228.206 226.247 229.054V236H223.221V229.594C223.226 228.926 223.055 228.405 222.71 228.031C222.364 227.652 221.888 227.463 221.282 227.463C220.875 227.463 220.515 227.551 220.203 227.726C219.895 227.901 219.653 228.157 219.478 228.493C219.308 228.824 219.22 229.224 219.215 229.693ZM234.434 225.091V227.364H227.864V225.091H234.434ZM229.356 222.477H232.381V232.648C232.381 232.927 232.424 233.145 232.509 233.301C232.594 233.453 232.713 233.559 232.864 233.621C233.02 233.682 233.2 233.713 233.404 233.713C233.546 233.713 233.688 233.701 233.83 233.678C233.972 233.649 234.081 233.628 234.157 233.614L234.633 235.865C234.481 235.912 234.268 235.967 233.993 236.028C233.719 236.095 233.385 236.135 232.992 236.149C232.263 236.178 231.624 236.08 231.074 235.858C230.53 235.635 230.106 235.29 229.803 234.821C229.5 234.352 229.351 233.76 229.356 233.045V222.477ZM241.259 236.213C240.137 236.213 239.171 235.986 238.361 235.531C237.556 235.072 236.936 234.423 236.501 233.585C236.065 232.742 235.847 231.746 235.847 230.595C235.847 229.473 236.065 228.488 236.501 227.641C236.936 226.793 237.549 226.133 238.34 225.659C239.135 225.186 240.068 224.949 241.138 224.949C241.858 224.949 242.528 225.065 243.148 225.297C243.773 225.524 244.318 225.867 244.782 226.327C245.251 226.786 245.615 227.364 245.876 228.06C246.136 228.751 246.266 229.561 246.266 230.489V231.32H237.055V229.445H243.418C243.418 229.009 243.323 228.623 243.134 228.287C242.945 227.951 242.682 227.688 242.346 227.499C242.014 227.304 241.628 227.207 241.188 227.207C240.729 227.207 240.322 227.314 239.966 227.527C239.616 227.735 239.341 228.017 239.143 228.372C238.944 228.723 238.842 229.113 238.837 229.544V231.327C238.837 231.866 238.937 232.333 239.135 232.726C239.339 233.119 239.626 233.422 239.995 233.635C240.364 233.848 240.802 233.955 241.309 233.955C241.645 233.955 241.953 233.907 242.232 233.812C242.511 233.718 242.751 233.576 242.949 233.386C243.148 233.197 243.3 232.965 243.404 232.69L246.202 232.875C246.06 233.547 245.769 234.134 245.329 234.636C244.893 235.134 244.33 235.522 243.638 235.801C242.952 236.076 242.159 236.213 241.259 236.213ZM251.266 229.693V236H248.241V225.091H251.124V227.016H251.252C251.493 226.381 251.898 225.879 252.466 225.51C253.035 225.136 253.724 224.949 254.533 224.949C255.291 224.949 255.951 225.115 256.515 225.446C257.078 225.777 257.516 226.251 257.829 226.866C258.141 227.477 258.297 228.206 258.297 229.054V236H255.272V229.594C255.277 228.926 255.106 228.405 254.76 228.031C254.415 227.652 253.939 227.463 253.333 227.463C252.926 227.463 252.566 227.551 252.253 227.726C251.946 227.901 251.704 228.157 251.529 228.493C251.358 228.824 251.271 229.224 251.266 229.693ZM266.485 225.091V227.364H259.915V225.091H266.485ZM261.406 222.477H264.432V232.648C264.432 232.927 264.475 233.145 264.56 233.301C264.645 233.453 264.763 233.559 264.915 233.621C265.071 233.682 265.251 233.713 265.455 233.713C265.597 233.713 265.739 233.701 265.881 233.678C266.023 233.649 266.132 233.628 266.208 233.614L266.683 235.865C266.532 235.912 266.319 235.967 266.044 236.028C265.77 236.095 265.436 236.135 265.043 236.149C264.314 236.178 263.674 236.08 263.125 235.858C262.581 235.635 262.157 235.29 261.854 234.821C261.551 234.352 261.402 233.76 261.406 233.045V222.477Z"/></svg>