<svg xmlns="http://www.w3.org/2000/svg" width="351" height="218" fill="none" viewBox="0 0 351 218"><rect width="330" height="193" x="13.5" y="16.5" fill="#09090B" fill-opacity=".5" rx="9.5"/><rect width="330" height="193" x="13.5" y="16.5" stroke="#424242" rx="9.5"/><path fill="#fff" d="M187 71.5C186.258 71.5 185.533 71.7199 184.917 72.132C184.3 72.544 183.819 73.1297 183.535 73.8149C183.252 74.5002 183.177 75.2542 183.322 75.9816C183.467 76.709 183.824 77.3772 184.348 77.9017C184.873 78.4261 185.541 78.7833 186.268 78.9279C186.996 79.0726 187.75 78.9984 188.435 78.7145C189.12 78.4307 189.706 77.9501 190.118 77.3334C190.53 76.7167 190.75 75.9917 190.75 75.25C190.75 74.2554 190.355 73.3016 189.652 72.5983C188.948 71.8951 187.995 71.5 187 71.5ZM187 77.5C186.555 77.5 186.12 77.368 185.75 77.1208C185.38 76.8736 185.092 76.5222 184.921 76.111C184.751 75.6999 184.706 75.2475 184.793 74.811C184.88 74.3746 185.094 73.9737 185.409 73.659C185.724 73.3443 186.125 73.1301 186.561 73.0432C186.998 72.9564 187.45 73.001 187.861 73.1713C188.272 73.3416 188.624 73.63 188.871 74C189.118 74.37 189.25 74.805 189.25 75.25C189.25 75.8467 189.013 76.419 188.591 76.841C188.169 77.2629 187.597 77.5 187 77.5ZM193.75 85.75V85C193.75 83.6076 193.197 82.2723 192.212 81.2877C191.228 80.3031 189.892 79.75 188.5 79.75H185.5C184.108 79.75 182.772 80.3031 181.788 81.2877C180.803 82.2723 180.25 83.6076 180.25 85V85.75H181.75V85C181.75 84.0054 182.145 83.0516 182.848 82.3483C183.552 81.6451 184.505 81.25 185.5 81.25H188.5C189.495 81.25 190.448 81.6451 191.152 82.3483C191.855 83.0516 192.25 84.0054 192.25 85V85.75H193.75Z"/><path stroke="#fff" stroke-linecap="round" stroke-linejoin="round" stroke-width="1.5" d="M140 85.75C141.335 85.75 142.64 85.3541 143.75 84.6124C144.86 83.8707 145.725 82.8165 146.236 81.5831C146.747 80.3497 146.881 78.9925 146.62 77.6831C146.36 76.3738 145.717 75.171 144.773 74.227C143.829 73.283 142.626 72.6402 141.317 72.3797C140.007 72.1193 138.65 72.2529 137.417 72.7638C136.183 73.2747 135.129 74.1399 134.388 75.2499C133.646 76.3599 133.25 77.665 133.25 79C133.25 80.116 133.52 81.1683 134 82.0953L133.25 85.75L136.905 85C137.832 85.48 138.885 85.75 140 85.75Z"/><rect width="171" height="12" x="28" y="41" fill="#D9D9D9" rx="6"/><rect width="48" height="17" x="28" y="71" fill="#fff" rx="8.5"/><path fill="#000" d="M39.3123 84V75.2727H44.7839V76.4062H40.6291V79.0653H44.4984V80.1946H40.6291V82.8665H44.8351V84H39.3123ZM48.3453 84.1449C47.9306 84.1449 47.5556 84.0682 47.2203 83.9148C46.8851 83.7585 46.6195 83.5327 46.4235 83.2372C46.2303 82.9418 46.1337 82.5795 46.1337 82.1506C46.1337 81.7812 46.2047 81.4773 46.3468 81.2386C46.4888 81 46.6806 80.8111 46.9221 80.6719C47.1635 80.5327 47.4334 80.4276 47.7317 80.3565C48.03 80.2855 48.334 80.2315 48.6436 80.1946C49.0357 80.1491 49.3539 80.1122 49.5982 80.0838C49.8425 80.0526 50.0201 80.0028 50.1309 79.9347C50.2417 79.8665 50.2971 79.7557 50.2971 79.6023V79.5724C50.2971 79.2003 50.1919 78.9119 49.9817 78.7074C49.7743 78.5028 49.4647 78.4006 49.0527 78.4006C48.6238 78.4006 48.2857 78.4957 48.0385 78.6861C47.7942 78.8736 47.6252 79.0824 47.5314 79.3125L46.334 79.0398C46.476 78.642 46.6834 78.321 46.9561 78.0767C47.2317 77.8295 47.5485 77.6506 47.9064 77.5398C48.2644 77.4261 48.6408 77.3693 49.0357 77.3693C49.2971 77.3693 49.574 77.4006 49.8667 77.4631C50.1621 77.5227 50.4377 77.6335 50.6934 77.7955C50.9519 77.9574 51.1635 78.1889 51.3283 78.4901C51.4931 78.7884 51.5755 79.1761 51.5755 79.6534V84H50.3311V83.1051H50.28C50.1976 83.2699 50.074 83.4318 49.9093 83.5909C49.7445 83.75 49.5328 83.8821 49.2743 83.9872C49.0158 84.0923 48.7061 84.1449 48.3453 84.1449ZM48.6223 83.1222C48.9746 83.1222 49.2757 83.0526 49.5257 82.9134C49.7786 82.7741 49.9703 82.5923 50.101 82.3679C50.2346 82.1406 50.3013 81.8977 50.3013 81.6392V80.7955C50.2559 80.8409 50.1678 80.8835 50.0371 80.9233C49.9093 80.9602 49.763 80.9929 49.5982 81.0213C49.4334 81.0469 49.2729 81.071 49.1167 81.0938C48.9604 81.1136 48.8297 81.1307 48.7246 81.1449C48.4775 81.1761 48.2516 81.2287 48.0471 81.3026C47.8453 81.3764 47.6834 81.483 47.5613 81.6222C47.4419 81.7585 47.3823 81.9403 47.3823 82.1676C47.3823 82.483 47.4988 82.7216 47.7317 82.8835C47.9647 83.0426 48.2615 83.1222 48.6223 83.1222ZM58.1774 79.0526L57.0225 79.2571C56.9743 79.1094 56.8975 78.9687 56.7924 78.8352C56.6902 78.7017 56.551 78.5923 56.3748 78.5071C56.1987 78.4219 55.9785 78.3793 55.7143 78.3793C55.3535 78.3793 55.0524 78.4602 54.8109 78.6222C54.5694 78.7812 54.4487 78.9872 54.4487 79.2401C54.4487 79.4588 54.5297 79.6349 54.6916 79.7685C54.8535 79.902 55.1149 80.0114 55.4757 80.0966L56.5154 80.3352C57.1177 80.4744 57.5666 80.6889 57.862 80.9787C58.1575 81.2685 58.3052 81.6449 58.3052 82.108C58.3052 82.5 58.1916 82.8494 57.9643 83.1562C57.7399 83.4602 57.426 83.6989 57.0225 83.8722C56.622 84.0455 56.1575 84.1321 55.6291 84.1321C54.8961 84.1321 54.2981 83.9759 53.835 83.6634C53.372 83.348 53.0879 82.9006 52.9828 82.321L54.2143 82.1335C54.291 82.4545 54.4487 82.6974 54.6873 82.8622C54.926 83.0241 55.237 83.1051 55.6206 83.1051C56.0382 83.1051 56.372 83.0185 56.622 82.8452C56.872 82.669 56.997 82.4545 56.997 82.2017C56.997 81.9972 56.9203 81.8253 56.7669 81.6861C56.6163 81.5469 56.3848 81.4418 56.0723 81.3707L54.9643 81.1278C54.3535 80.9886 53.9018 80.767 53.6092 80.4631C53.3194 80.1591 53.1745 79.7741 53.1745 79.3082C53.1745 78.9219 53.2825 78.5838 53.4984 78.294C53.7143 78.0043 54.0126 77.7784 54.3933 77.6165C54.774 77.4517 55.21 77.3693 55.7015 77.3693C56.4089 77.3693 56.9657 77.5227 57.372 77.8295C57.7782 78.1335 58.0467 78.5412 58.1774 79.0526ZM60.5115 86.4545C60.3212 86.4545 60.1479 86.4389 59.9917 86.4077C59.8354 86.3793 59.7189 86.348 59.6422 86.3139L59.949 85.2699C60.182 85.3324 60.3894 85.3594 60.5712 85.3509C60.753 85.3423 60.9135 85.2741 61.0527 85.1463C61.1948 85.0185 61.3198 84.8097 61.4277 84.5199L61.5854 84.0852L59.1905 77.4545H60.5542L62.2118 82.5341H62.28L63.9377 77.4545H65.3056L62.6081 84.8736C62.4831 85.2145 62.324 85.5028 62.1309 85.7386C61.9377 85.9773 61.7076 86.1563 61.4405 86.2756C61.1735 86.3949 60.8638 86.4545 60.5115 86.4545Z"/><rect width="108" height="17" x="28" y="106" fill="#222226" rx="8.5"/><path fill="#fff" d="M33.9238 121.25V113H34.8145V113.953H34.9238C34.9915 113.849 35.0853 113.716 35.2051 113.555C35.3275 113.391 35.502 113.245 35.7285 113.117C35.9577 112.987 36.2676 112.922 36.6582 112.922C37.1634 112.922 37.6087 113.048 37.9941 113.301C38.3796 113.553 38.6803 113.911 38.8965 114.375C39.1126 114.839 39.2207 115.385 39.2207 116.016C39.2207 116.651 39.1126 117.202 38.8965 117.668C38.6803 118.132 38.3809 118.491 37.998 118.746C37.6152 118.999 37.1738 119.125 36.6738 119.125C36.2884 119.125 35.9798 119.061 35.748 118.934C35.5163 118.803 35.3379 118.656 35.2129 118.492C35.0879 118.326 34.9915 118.187 34.9238 118.078H34.8457V121.25H33.9238ZM34.8301 116C34.8301 116.453 34.8965 116.853 35.0293 117.199C35.1621 117.543 35.3561 117.812 35.6113 118.008C35.8665 118.201 36.179 118.297 36.5488 118.297C36.9342 118.297 37.2559 118.195 37.5137 117.992C37.7741 117.786 37.9694 117.51 38.0996 117.164C38.2324 116.815 38.2988 116.427 38.2988 116C38.2988 115.578 38.2337 115.198 38.1035 114.859C37.9759 114.518 37.7819 114.249 37.5215 114.051C37.2637 113.85 36.9395 113.75 36.5488 113.75C36.1738 113.75 35.8587 113.845 35.6035 114.035C35.3483 114.223 35.1556 114.486 35.0254 114.824C34.8952 115.16 34.8301 115.552 34.8301 116ZM41.5488 115.391V119H40.627V111H41.5488V113.937H41.627C41.7676 113.628 41.9785 113.382 42.2598 113.199C42.5436 113.014 42.9212 112.922 43.3926 112.922C43.8014 112.922 44.1595 113.004 44.4668 113.168C44.7741 113.329 45.0124 113.578 45.1816 113.914C45.3535 114.247 45.4395 114.672 45.4395 115.188V119H44.5176V115.25C44.5176 114.773 44.3939 114.405 44.1465 114.145C43.9017 113.882 43.5618 113.75 43.127 113.75C42.8249 113.75 42.554 113.814 42.3145 113.941C42.0775 114.069 41.89 114.255 41.752 114.5C41.6165 114.745 41.5488 115.042 41.5488 115.391ZM48.8916 119.141C48.5114 119.141 48.1663 119.069 47.8564 118.926C47.5465 118.78 47.3005 118.57 47.1182 118.297C46.9359 118.021 46.8447 117.687 46.8447 117.297C46.8447 116.953 46.9124 116.674 47.0479 116.461C47.1833 116.245 47.3643 116.076 47.5908 115.953C47.8174 115.831 48.0674 115.74 48.3408 115.68C48.6169 115.617 48.8942 115.568 49.1729 115.531C49.5374 115.484 49.833 115.449 50.0596 115.426C50.2887 115.4 50.4554 115.357 50.5596 115.297C50.6663 115.237 50.7197 115.133 50.7197 114.984V114.953C50.7197 114.568 50.6143 114.268 50.4033 114.055C50.195 113.841 49.8786 113.734 49.4541 113.734C49.014 113.734 48.6689 113.831 48.4189 114.023C48.1689 114.216 47.9932 114.422 47.8916 114.641L47.0166 114.328C47.1729 113.964 47.3812 113.68 47.6416 113.477C47.9046 113.271 48.1911 113.128 48.501 113.047C48.8135 112.964 49.1208 112.922 49.4229 112.922C49.6156 112.922 49.8369 112.945 50.0869 112.992C50.3395 113.036 50.583 113.129 50.8174 113.27C51.0544 113.41 51.251 113.622 51.4072 113.906C51.5635 114.19 51.6416 114.57 51.6416 115.047V119H50.7197V118.187H50.6729C50.6104 118.318 50.5062 118.457 50.3604 118.605C50.2145 118.754 50.0205 118.88 49.7783 118.984C49.5361 119.089 49.2406 119.141 48.8916 119.141ZM49.0322 118.312C49.3968 118.312 49.7041 118.241 49.9541 118.098C50.2067 117.954 50.3968 117.77 50.5244 117.543C50.6546 117.316 50.7197 117.078 50.7197 116.828V115.984C50.6807 116.031 50.5947 116.074 50.4619 116.113C50.3317 116.15 50.1807 116.182 50.0088 116.211C49.8395 116.237 49.6742 116.26 49.5127 116.281C49.3538 116.299 49.2249 116.315 49.126 116.328C48.8864 116.359 48.6624 116.41 48.4541 116.48C48.2484 116.548 48.0817 116.651 47.9541 116.789C47.8291 116.924 47.7666 117.109 47.7666 117.344C47.7666 117.664 47.8851 117.906 48.1221 118.07C48.3617 118.232 48.665 118.312 49.0322 118.312ZM54.2461 115.391V119H53.3242V113H54.2148V113.937H54.293C54.4336 113.633 54.6471 113.388 54.9336 113.203C55.2201 113.016 55.5898 112.922 56.043 112.922C56.4492 112.922 56.8047 113.005 57.1094 113.172C57.4141 113.336 57.651 113.586 57.8203 113.922C57.9896 114.255 58.0742 114.677 58.0742 115.188V119H57.1523V115.25C57.1523 114.779 57.0299 114.411 56.7852 114.148C56.5404 113.883 56.2044 113.75 55.7773 113.75C55.4831 113.75 55.2201 113.814 54.9883 113.941C54.7591 114.069 54.5781 114.255 54.4453 114.5C54.3125 114.745 54.2461 115.042 54.2461 115.391ZM62.3682 113V113.781H59.2588V113H62.3682ZM60.165 111.562H61.0869V117.281C61.0869 117.542 61.1247 117.737 61.2002 117.867C61.2783 117.995 61.3773 118.081 61.4971 118.125C61.6195 118.167 61.7484 118.187 61.8838 118.187C61.9854 118.187 62.0687 118.182 62.1338 118.172C62.1989 118.159 62.251 118.148 62.29 118.141L62.4775 118.969C62.415 118.992 62.3278 119.016 62.2158 119.039C62.1038 119.065 61.9619 119.078 61.79 119.078C61.5296 119.078 61.2744 119.022 61.0244 118.91C60.777 118.798 60.5713 118.628 60.4072 118.398C60.2458 118.169 60.165 117.88 60.165 117.531V111.562ZM66.1279 119.125C65.5863 119.125 65.111 118.996 64.7021 118.738C64.2959 118.48 63.9782 118.12 63.749 117.656C63.5225 117.193 63.4092 116.651 63.4092 116.031C63.4092 115.406 63.5225 114.861 63.749 114.395C63.9782 113.928 64.2959 113.566 64.7021 113.309C65.111 113.051 65.5863 112.922 66.1279 112.922C66.6696 112.922 67.1436 113.051 67.5498 113.309C67.9587 113.566 68.2764 113.928 68.5029 114.395C68.7321 114.861 68.8467 115.406 68.8467 116.031C68.8467 116.651 68.7321 117.193 68.5029 117.656C68.2764 118.12 67.9587 118.48 67.5498 118.738C67.1436 118.996 66.6696 119.125 66.1279 119.125ZM66.1279 118.297C66.5394 118.297 66.8779 118.191 67.1436 117.98C67.4092 117.77 67.6058 117.492 67.7334 117.148C67.861 116.805 67.9248 116.432 67.9248 116.031C67.9248 115.63 67.861 115.257 67.7334 114.91C67.6058 114.564 67.4092 114.284 67.1436 114.07C66.8779 113.857 66.5394 113.75 66.1279 113.75C65.7165 113.75 65.3779 113.857 65.1123 114.07C64.8467 114.284 64.6501 114.564 64.5225 114.91C64.3949 115.257 64.3311 115.63 64.3311 116.031C64.3311 116.432 64.3949 116.805 64.5225 117.148C64.6501 117.492 64.8467 117.77 65.1123 117.98C65.3779 118.191 65.7165 118.297 66.1279 118.297ZM70.2539 119V113H71.1445V113.937H71.2227C71.3477 113.617 71.5495 113.368 71.8281 113.191C72.1068 113.012 72.4414 112.922 72.832 112.922C73.2279 112.922 73.5573 113.012 73.8203 113.191C74.0859 113.368 74.293 113.617 74.4414 113.937H74.5039C74.6576 113.628 74.888 113.382 75.1953 113.199C75.5026 113.014 75.8711 112.922 76.3008 112.922C76.8372 112.922 77.276 113.09 77.6172 113.426C77.9583 113.759 78.1289 114.279 78.1289 114.984V119H77.207V114.984C77.207 114.542 77.0859 114.225 76.8438 114.035C76.6016 113.845 76.3164 113.75 75.9883 113.75C75.5664 113.75 75.2396 113.878 75.0078 114.133C74.776 114.385 74.6602 114.706 74.6602 115.094V119H73.7227V114.891C73.7227 114.549 73.612 114.275 73.3906 114.066C73.1693 113.855 72.8841 113.75 72.5352 113.75C72.2956 113.75 72.0716 113.814 71.8633 113.941C71.6576 114.069 71.4909 114.246 71.3633 114.473C71.2383 114.697 71.1758 114.956 71.1758 115.25V119H70.2539ZM80.6738 116.812L80.6582 115.672H80.8457L83.4707 113H84.6113L81.8145 115.828H81.7363L80.6738 116.812ZM79.8145 119V111H80.7363V119H79.8145ZM83.627 119L81.2832 116.031L81.9395 115.391L84.7988 119H83.627ZM86.7197 115.391V119H85.7979V113H86.6885V113.937H86.7666C86.9072 113.633 87.1208 113.388 87.4072 113.203C87.6937 113.016 88.0635 112.922 88.5166 112.922C88.9229 112.922 89.2783 113.005 89.583 113.172C89.8877 113.336 90.1247 113.586 90.2939 113.922C90.4632 114.255 90.5479 114.677 90.5479 115.188V119H89.626V115.25C89.626 114.779 89.5036 114.411 89.2588 114.148C89.014 113.883 88.6781 113.75 88.251 113.75C87.9567 113.75 87.6937 113.814 87.4619 113.941C87.2327 114.069 87.0518 114.255 86.9189 114.5C86.7861 114.745 86.7197 115.042 86.7197 115.391ZM92.2324 119V113H93.1543V119H92.2324ZM92.7012 112C92.5215 112 92.3665 111.939 92.2363 111.816C92.1087 111.694 92.0449 111.547 92.0449 111.375C92.0449 111.203 92.1087 111.056 92.2363 110.934C92.3665 110.811 92.5215 110.75 92.7012 110.75C92.8809 110.75 93.0345 110.811 93.1621 110.934C93.2923 111.056 93.3574 111.203 93.3574 111.375C93.3574 111.547 93.2923 111.694 93.1621 111.816C93.0345 111.939 92.8809 112 92.7012 112ZM97.2646 121.375C96.8193 121.375 96.4365 121.318 96.1162 121.203C95.7959 121.091 95.529 120.943 95.3154 120.758C95.1045 120.576 94.9365 120.38 94.8115 120.172L95.5459 119.656C95.6292 119.766 95.7347 119.891 95.8623 120.031C95.9899 120.174 96.1644 120.298 96.3857 120.402C96.6097 120.509 96.9027 120.562 97.2646 120.562C97.749 120.562 98.1488 120.445 98.4639 120.211C98.779 119.977 98.9365 119.609 98.9365 119.109V117.891H98.8584C98.7907 118 98.6943 118.135 98.5693 118.297C98.4469 118.456 98.2699 118.598 98.0381 118.723C97.8089 118.845 97.499 118.906 97.1084 118.906C96.624 118.906 96.1891 118.792 95.8037 118.563C95.4209 118.333 95.1175 118 94.8936 117.562C94.6722 117.125 94.5615 116.594 94.5615 115.969C94.5615 115.354 94.6696 114.819 94.8857 114.363C95.1019 113.905 95.4027 113.551 95.7881 113.301C96.1735 113.048 96.6188 112.922 97.124 112.922C97.5146 112.922 97.8245 112.987 98.0537 113.117C98.2855 113.245 98.4626 113.391 98.585 113.555C98.71 113.716 98.8063 113.849 98.874 113.953H98.9678V113H99.8584V119.172C99.8584 119.688 99.7412 120.107 99.5068 120.43C99.2751 120.755 98.9626 120.993 98.5693 121.145C98.1787 121.298 97.7438 121.375 97.2646 121.375ZM97.2334 118.078C97.6032 118.078 97.9157 117.993 98.1709 117.824C98.4261 117.655 98.6201 117.411 98.7529 117.094C98.8857 116.776 98.9521 116.396 98.9521 115.953C98.9521 115.521 98.887 115.139 98.7568 114.809C98.6266 114.478 98.4339 114.219 98.1787 114.031C97.9235 113.844 97.6084 113.75 97.2334 113.75C96.8428 113.75 96.5173 113.849 96.2568 114.047C95.999 114.245 95.805 114.51 95.6748 114.844C95.5472 115.177 95.4834 115.547 95.4834 115.953C95.4834 116.37 95.5485 116.738 95.6787 117.059C95.8115 117.376 96.0068 117.626 96.2646 117.809C96.5251 117.988 96.848 118.078 97.2334 118.078ZM102.468 115.391V119H101.546V111H102.468V113.937H102.546C102.687 113.628 102.897 113.382 103.179 113.199C103.463 113.014 103.84 112.922 104.312 112.922C104.72 112.922 105.078 113.004 105.386 113.168C105.693 113.329 105.931 113.578 106.101 113.914C106.272 114.247 106.358 114.672 106.358 115.188V119H105.437V115.25C105.437 114.773 105.313 114.405 105.065 114.145C104.821 113.882 104.481 113.75 104.046 113.75C103.744 113.75 103.473 113.814 103.233 113.941C102.996 114.069 102.809 114.255 102.671 114.5C102.535 114.745 102.468 115.042 102.468 115.391ZM110.654 113V113.781H107.545V113H110.654ZM108.451 111.562H109.373V117.281C109.373 117.542 109.411 117.737 109.486 117.867C109.564 117.995 109.663 118.081 109.783 118.125C109.906 118.167 110.035 118.187 110.17 118.187C110.271 118.187 110.355 118.182 110.42 118.172C110.485 118.159 110.537 118.148 110.576 118.141L110.764 118.969C110.701 118.992 110.614 119.016 110.502 119.039C110.39 119.065 110.248 119.078 110.076 119.078C109.816 119.078 109.561 119.022 109.311 118.91C109.063 118.798 108.857 118.628 108.693 118.398C108.532 118.169 108.451 117.88 108.451 117.531V111.562ZM112.025 119V118.297L114.666 115.406C114.976 115.068 115.231 114.773 115.432 114.523C115.632 114.271 115.781 114.034 115.877 113.812C115.976 113.589 116.025 113.354 116.025 113.109C116.025 112.828 115.958 112.585 115.822 112.379C115.689 112.173 115.507 112.014 115.275 111.902C115.044 111.79 114.783 111.734 114.494 111.734C114.187 111.734 113.919 111.798 113.689 111.926C113.463 112.051 113.287 112.227 113.162 112.453C113.04 112.68 112.979 112.945 112.979 113.25H112.057C112.057 112.781 112.165 112.37 112.381 112.016C112.597 111.661 112.891 111.385 113.264 111.187C113.639 110.99 114.059 110.891 114.525 110.891C114.994 110.891 115.41 110.99 115.771 111.187C116.133 111.385 116.417 111.652 116.623 111.988C116.829 112.324 116.932 112.698 116.932 113.109C116.932 113.404 116.878 113.691 116.771 113.973C116.667 114.251 116.485 114.562 116.225 114.906C115.967 115.247 115.609 115.664 115.15 116.156L113.354 118.078V118.141H117.072V119H112.025ZM121.248 119.109C120.712 119.109 120.238 119.014 119.826 118.824C119.417 118.632 119.098 118.367 118.869 118.031C118.64 117.693 118.527 117.307 118.529 116.875C118.527 116.536 118.593 116.224 118.729 115.937C118.864 115.648 119.049 115.408 119.283 115.215C119.52 115.02 119.785 114.896 120.076 114.844V114.797C119.693 114.698 119.389 114.483 119.162 114.152C118.936 113.819 118.824 113.44 118.826 113.016C118.824 112.609 118.926 112.246 119.135 111.926C119.343 111.605 119.63 111.353 119.994 111.168C120.361 110.983 120.779 110.891 121.248 110.891C121.712 110.891 122.126 110.983 122.49 111.168C122.855 111.353 123.141 111.605 123.35 111.926C123.561 112.246 123.667 112.609 123.67 113.016C123.667 113.44 123.551 113.819 123.322 114.152C123.096 114.483 122.795 114.698 122.42 114.797V114.844C122.709 114.896 122.969 115.02 123.201 115.215C123.433 115.408 123.618 115.648 123.756 115.937C123.894 116.224 123.964 116.536 123.967 116.875C123.964 117.307 123.847 117.693 123.615 118.031C123.386 118.367 123.067 118.632 122.658 118.824C122.252 119.014 121.782 119.109 121.248 119.109ZM121.248 118.25C121.61 118.25 121.923 118.191 122.186 118.074C122.449 117.957 122.652 117.792 122.795 117.578C122.938 117.365 123.011 117.115 123.014 116.828C123.011 116.526 122.933 116.259 122.779 116.027C122.626 115.796 122.416 115.613 122.15 115.48C121.887 115.348 121.587 115.281 121.248 115.281C120.907 115.281 120.602 115.348 120.334 115.48C120.068 115.613 119.859 115.796 119.705 116.027C119.554 116.259 119.48 116.526 119.482 116.828C119.48 117.115 119.549 117.365 119.689 117.578C119.833 117.792 120.037 117.957 120.303 118.074C120.568 118.191 120.883 118.25 121.248 118.25ZM121.248 114.453C121.535 114.453 121.788 114.396 122.01 114.281C122.234 114.167 122.41 114.007 122.537 113.801C122.665 113.595 122.73 113.354 122.732 113.078C122.73 112.807 122.666 112.572 122.541 112.371C122.416 112.168 122.243 112.012 122.021 111.902C121.8 111.79 121.542 111.734 121.248 111.734C120.949 111.734 120.687 111.79 120.463 111.902C120.239 112.012 120.066 112.168 119.943 112.371C119.821 112.572 119.761 112.807 119.764 113.078C119.761 113.354 119.822 113.595 119.947 113.801C120.075 114.007 120.251 114.167 120.475 114.281C120.699 114.396 120.956 114.453 121.248 114.453ZM125.714 119L129.292 111.922V111.859H125.167V111H130.292V111.906L126.729 119H125.714Z"/><path fill="#A1A1AA" d="M142.999 118V117.297L145.64 114.406C145.95 114.068 146.205 113.773 146.405 113.523C146.606 113.271 146.754 113.034 146.851 112.812C146.95 112.589 146.999 112.354 146.999 112.109C146.999 111.828 146.931 111.585 146.796 111.379C146.663 111.173 146.481 111.014 146.249 110.902C146.017 110.79 145.757 110.734 145.468 110.734C145.16 110.734 144.892 110.798 144.663 110.926C144.437 111.051 144.261 111.227 144.136 111.453C144.013 111.68 143.952 111.945 143.952 112.25H143.03C143.03 111.781 143.138 111.37 143.354 111.016C143.571 110.661 143.865 110.385 144.237 110.187C144.612 109.99 145.033 109.891 145.499 109.891C145.968 109.891 146.383 109.99 146.745 110.187C147.107 110.385 147.391 110.652 147.597 110.988C147.802 111.324 147.905 111.698 147.905 112.109C147.905 112.404 147.852 112.691 147.745 112.973C147.641 113.251 147.459 113.562 147.198 113.906C146.94 114.247 146.582 114.664 146.124 115.156L144.327 117.078V117.141H148.046V118H142.999ZM149.659 118V117.297L152.3 114.406C152.61 114.068 152.865 113.773 153.065 113.523C153.266 113.271 153.414 113.034 153.511 112.812C153.61 112.589 153.659 112.354 153.659 112.109C153.659 111.828 153.591 111.585 153.456 111.379C153.323 111.173 153.141 111.014 152.909 110.902C152.677 110.79 152.417 110.734 152.128 110.734C151.821 110.734 151.552 110.798 151.323 110.926C151.097 111.051 150.921 111.227 150.796 111.453C150.674 111.68 150.612 111.945 150.612 112.25H149.69C149.69 111.781 149.799 111.37 150.015 111.016C150.231 110.661 150.525 110.385 150.897 110.187C151.272 109.99 151.693 109.891 152.159 109.891C152.628 109.891 153.043 109.99 153.405 110.187C153.767 110.385 154.051 110.652 154.257 110.988C154.463 111.324 154.565 111.698 154.565 112.109C154.565 112.404 154.512 112.691 154.405 112.973C154.301 113.251 154.119 113.562 153.858 113.906C153.601 114.247 153.243 114.664 152.784 115.156L150.987 117.078V117.141H154.706V118H149.659ZM161.694 118.125C161.194 118.125 160.753 117.999 160.37 117.746C159.987 117.491 159.688 117.132 159.472 116.668C159.256 116.202 159.147 115.651 159.147 115.016C159.147 114.385 159.256 113.839 159.472 113.375C159.688 112.911 159.989 112.553 160.374 112.301C160.759 112.048 161.205 111.922 161.71 111.922C162.101 111.922 162.409 111.987 162.636 112.117C162.865 112.245 163.039 112.391 163.159 112.555C163.282 112.716 163.377 112.849 163.444 112.953H163.522V110H164.444V118H163.554V117.078H163.444C163.377 117.187 163.28 117.326 163.155 117.492C163.03 117.656 162.852 117.803 162.62 117.934C162.388 118.061 162.08 118.125 161.694 118.125ZM161.819 117.297C162.189 117.297 162.502 117.201 162.757 117.008C163.012 116.812 163.206 116.543 163.339 116.199C163.472 115.853 163.538 115.453 163.538 115C163.538 114.552 163.473 114.16 163.343 113.824C163.213 113.486 163.02 113.223 162.765 113.035C162.509 112.845 162.194 112.75 161.819 112.75C161.429 112.75 161.103 112.85 160.843 113.051C160.585 113.249 160.391 113.518 160.261 113.859C160.133 114.198 160.069 114.578 160.069 115C160.069 115.427 160.134 115.815 160.265 116.164C160.397 116.51 160.593 116.786 160.851 116.992C161.111 117.195 161.434 117.297 161.819 117.297ZM168.026 118.141C167.646 118.141 167.301 118.069 166.991 117.926C166.681 117.78 166.435 117.57 166.253 117.297C166.071 117.021 165.979 116.687 165.979 116.297C165.979 115.953 166.047 115.674 166.183 115.461C166.318 115.245 166.499 115.076 166.726 114.953C166.952 114.831 167.202 114.74 167.476 114.68C167.752 114.617 168.029 114.568 168.308 114.531C168.672 114.484 168.968 114.449 169.194 114.426C169.424 114.4 169.59 114.357 169.694 114.297C169.801 114.237 169.854 114.133 169.854 113.984V113.953C169.854 113.568 169.749 113.268 169.538 113.055C169.33 112.841 169.013 112.734 168.589 112.734C168.149 112.734 167.804 112.831 167.554 113.023C167.304 113.216 167.128 113.422 167.026 113.641L166.151 113.328C166.308 112.964 166.516 112.68 166.776 112.477C167.039 112.271 167.326 112.128 167.636 112.047C167.948 111.964 168.256 111.922 168.558 111.922C168.75 111.922 168.972 111.945 169.222 111.992C169.474 112.036 169.718 112.129 169.952 112.27C170.189 112.41 170.386 112.622 170.542 112.906C170.698 113.19 170.776 113.57 170.776 114.047V118H169.854V117.187H169.808C169.745 117.318 169.641 117.457 169.495 117.605C169.349 117.754 169.155 117.88 168.913 117.984C168.671 118.089 168.375 118.141 168.026 118.141ZM168.167 117.312C168.532 117.312 168.839 117.241 169.089 117.098C169.341 116.954 169.532 116.77 169.659 116.543C169.789 116.316 169.854 116.078 169.854 115.828V114.984C169.815 115.031 169.729 115.074 169.597 115.113C169.466 115.15 169.315 115.182 169.144 115.211C168.974 115.237 168.809 115.26 168.647 115.281C168.489 115.299 168.36 115.315 168.261 115.328C168.021 115.359 167.797 115.41 167.589 115.48C167.383 115.548 167.216 115.651 167.089 115.789C166.964 115.924 166.901 116.109 166.901 116.344C166.901 116.664 167.02 116.906 167.257 117.07C167.496 117.232 167.8 117.312 168.167 117.312ZM172.838 120.25C172.682 120.25 172.542 120.237 172.42 120.211C172.298 120.188 172.213 120.164 172.166 120.141L172.4 119.328C172.624 119.385 172.822 119.406 172.994 119.391C173.166 119.375 173.318 119.298 173.451 119.16C173.587 119.025 173.71 118.805 173.822 118.5L173.994 118.031L171.775 112H172.775L174.432 116.781H174.494L176.15 112H177.15L174.604 118.875C174.489 119.185 174.347 119.441 174.178 119.645C174.008 119.85 173.812 120.003 173.588 120.102C173.367 120.201 173.117 120.25 172.838 120.25ZM182.617 113.344L181.789 113.578C181.737 113.44 181.66 113.306 181.559 113.176C181.46 113.043 181.324 112.934 181.152 112.848C180.98 112.762 180.76 112.719 180.492 112.719C180.125 112.719 179.819 112.803 179.574 112.973C179.332 113.139 179.211 113.352 179.211 113.609C179.211 113.839 179.294 114.02 179.461 114.152C179.628 114.285 179.888 114.396 180.242 114.484L181.133 114.703C181.669 114.833 182.069 115.033 182.332 115.301C182.595 115.566 182.727 115.909 182.727 116.328C182.727 116.672 182.628 116.979 182.43 117.25C182.234 117.521 181.961 117.734 181.609 117.891C181.258 118.047 180.849 118.125 180.383 118.125C179.771 118.125 179.264 117.992 178.863 117.727C178.462 117.461 178.208 117.073 178.102 116.562L178.977 116.344C179.06 116.667 179.217 116.909 179.449 117.07C179.684 117.232 179.99 117.312 180.367 117.312C180.797 117.312 181.138 117.221 181.391 117.039C181.646 116.854 181.773 116.633 181.773 116.375C181.773 116.167 181.701 115.992 181.555 115.852C181.409 115.708 181.185 115.602 180.883 115.531L179.883 115.297C179.333 115.167 178.93 114.965 178.672 114.691C178.417 114.415 178.289 114.07 178.289 113.656C178.289 113.318 178.384 113.018 178.574 112.758C178.767 112.497 179.029 112.293 179.359 112.145C179.693 111.996 180.07 111.922 180.492 111.922C181.086 111.922 181.552 112.052 181.891 112.312C182.232 112.573 182.474 112.917 182.617 113.344ZM188.974 118.141C188.593 118.141 188.248 118.069 187.938 117.926C187.629 117.78 187.382 117.57 187.2 117.297C187.018 117.021 186.927 116.687 186.927 116.297C186.927 115.953 186.994 115.674 187.13 115.461C187.265 115.245 187.446 115.076 187.673 114.953C187.899 114.831 188.149 114.74 188.423 114.68C188.699 114.617 188.976 114.568 189.255 114.531C189.619 114.484 189.915 114.449 190.142 114.426C190.371 114.4 190.537 114.357 190.642 114.297C190.748 114.237 190.802 114.133 190.802 113.984V113.953C190.802 113.568 190.696 113.268 190.485 113.055C190.277 112.841 189.961 112.734 189.536 112.734C189.096 112.734 188.751 112.831 188.501 113.023C188.251 113.216 188.075 113.422 187.974 113.641L187.099 113.328C187.255 112.964 187.463 112.68 187.724 112.477C187.987 112.271 188.273 112.128 188.583 112.047C188.896 111.964 189.203 111.922 189.505 111.922C189.698 111.922 189.919 111.945 190.169 111.992C190.422 112.036 190.665 112.129 190.899 112.27C191.136 112.41 191.333 112.622 191.489 112.906C191.646 113.19 191.724 113.57 191.724 114.047V118H190.802V117.187H190.755C190.692 117.318 190.588 117.457 190.442 117.605C190.297 117.754 190.103 117.88 189.86 117.984C189.618 118.089 189.323 118.141 188.974 118.141ZM189.114 117.312C189.479 117.312 189.786 117.241 190.036 117.098C190.289 116.954 190.479 116.77 190.606 116.543C190.737 116.316 190.802 116.078 190.802 115.828V114.984C190.763 115.031 190.677 115.074 190.544 115.113C190.414 115.15 190.263 115.182 190.091 115.211C189.922 115.237 189.756 115.26 189.595 115.281C189.436 115.299 189.307 115.315 189.208 115.328C188.968 115.359 188.744 115.41 188.536 115.48C188.33 115.548 188.164 115.651 188.036 115.789C187.911 115.924 187.849 116.109 187.849 116.344C187.849 116.664 187.967 116.906 188.204 117.07C188.444 117.232 188.747 117.312 189.114 117.312ZM195.828 120.375C195.383 120.375 195 120.318 194.68 120.203C194.359 120.091 194.092 119.943 193.879 119.758C193.668 119.576 193.5 119.38 193.375 119.172L194.109 118.656C194.193 118.766 194.298 118.891 194.426 119.031C194.553 119.174 194.728 119.298 194.949 119.402C195.173 119.509 195.466 119.562 195.828 119.562C196.313 119.562 196.712 119.445 197.027 119.211C197.342 118.977 197.5 118.609 197.5 118.109V116.891H197.422C197.354 117 197.258 117.135 197.133 117.297C197.01 117.456 196.833 117.598 196.602 117.723C196.372 117.845 196.063 117.906 195.672 117.906C195.188 117.906 194.753 117.792 194.367 117.563C193.984 117.333 193.681 117 193.457 116.562C193.236 116.125 193.125 115.594 193.125 114.969C193.125 114.354 193.233 113.819 193.449 113.363C193.665 112.905 193.966 112.551 194.352 112.301C194.737 112.048 195.182 111.922 195.687 111.922C196.078 111.922 196.388 111.987 196.617 112.117C196.849 112.245 197.026 112.391 197.148 112.555C197.273 112.716 197.37 112.849 197.438 112.953H197.531V112H198.422V118.172C198.422 118.688 198.305 119.107 198.07 119.43C197.839 119.755 197.526 119.993 197.133 120.145C196.742 120.298 196.307 120.375 195.828 120.375ZM195.797 117.078C196.167 117.078 196.479 116.993 196.734 116.824C196.99 116.655 197.184 116.411 197.316 116.094C197.449 115.776 197.516 115.396 197.516 114.953C197.516 114.521 197.451 114.139 197.32 113.809C197.19 113.478 196.997 113.219 196.742 113.031C196.487 112.844 196.172 112.75 195.797 112.75C195.406 112.75 195.081 112.849 194.82 113.047C194.563 113.245 194.368 113.51 194.238 113.844C194.111 114.177 194.047 114.547 194.047 114.953C194.047 115.37 194.112 115.738 194.242 116.059C194.375 116.376 194.57 116.626 194.828 116.809C195.089 116.988 195.411 117.078 195.797 117.078ZM202.547 118.125C202.005 118.125 201.53 117.996 201.121 117.738C200.715 117.48 200.397 117.12 200.168 116.656C199.941 116.193 199.828 115.651 199.828 115.031C199.828 114.406 199.941 113.861 200.168 113.395C200.397 112.928 200.715 112.566 201.121 112.309C201.53 112.051 202.005 111.922 202.547 111.922C203.089 111.922 203.563 112.051 203.969 112.309C204.378 112.566 204.695 112.928 204.922 113.395C205.151 113.861 205.266 114.406 205.266 115.031C205.266 115.651 205.151 116.193 204.922 116.656C204.695 117.12 204.378 117.48 203.969 117.738C203.563 117.996 203.089 118.125 202.547 118.125ZM202.547 117.297C202.958 117.297 203.297 117.191 203.562 116.98C203.828 116.77 204.025 116.492 204.152 116.148C204.28 115.805 204.344 115.432 204.344 115.031C204.344 114.63 204.28 114.257 204.152 113.91C204.025 113.564 203.828 113.284 203.562 113.07C203.297 112.857 202.958 112.75 202.547 112.75C202.135 112.75 201.797 112.857 201.531 113.07C201.266 113.284 201.069 113.564 200.941 113.91C200.814 114.257 200.75 114.63 200.75 115.031C200.75 115.432 200.814 115.805 200.941 116.148C201.069 116.492 201.266 116.77 201.531 116.98C201.797 117.191 202.135 117.297 202.547 117.297Z"/><path fill="#fff" d="M91 78V87H88V78H91ZM94 87C93.6022 87 93.2206 86.842 92.9393 86.5607C92.658 86.2794 92.5 85.8978 92.5 85.5V78C92.5 77.5875 92.665 77.2125 92.9425 76.9425L97.8775 72L98.6725 72.795C98.875 72.9975 99.0025 73.275 99.0025 73.5825L98.98 73.8225L98.2675 77.25H103C103.398 77.25 103.779 77.408 104.061 77.6893C104.342 77.9706 104.5 78.3522 104.5 78.75V80.25C104.5 80.445 104.463 80.625 104.395 80.7975L102.13 86.085C101.905 86.625 101.372 87 100.75 87H94ZM94 85.5H100.773L103 80.25V78.75H96.4075L97.255 74.76L94 78.0225V85.5Z"/><path fill="#fff" d="M116.569 75.2727V84H114.724V77.0241H114.672L112.674 78.277V76.6406L114.834 75.2727H116.569Z"/><path fill="#fff" d="M158.484 83L162.102 75.8409V75.7812H157.888V74.2727H164.011V75.8026L160.389 83H158.484Z"/><path fill="#fff" d="M208.028 83.1193C207.425 83.1193 206.888 83.0085 206.417 82.7869C205.948 82.5653 205.576 82.2599 205.3 81.8707C205.025 81.4815 204.881 81.0355 204.87 80.5327H206.66C206.68 80.8707 206.822 81.1449 207.086 81.3551C207.35 81.5653 207.664 81.6705 208.028 81.6705C208.317 81.6705 208.573 81.6065 208.795 81.4787C209.019 81.348 209.194 81.1676 209.319 80.9375C209.447 80.7045 209.511 80.4375 209.511 80.1364C209.511 79.8295 209.445 79.5597 209.315 79.3267C209.187 79.0937 209.009 78.9119 208.782 78.7812C208.555 78.6506 208.295 78.5838 208.002 78.581C207.746 78.581 207.498 78.6335 207.256 78.7386C207.018 78.8437 206.832 78.9872 206.698 79.169L205.058 78.875L205.471 74.2727H210.806V75.7812H206.992L206.766 77.9673H206.817C206.971 77.7514 207.202 77.5724 207.512 77.4304C207.822 77.2884 208.168 77.2173 208.552 77.2173C209.077 77.2173 209.546 77.3409 209.958 77.5881C210.37 77.8352 210.695 78.1747 210.934 78.6065C211.173 79.0355 211.29 79.5298 211.288 80.0895C211.29 80.6776 211.154 81.2003 210.879 81.6577C210.606 82.1122 210.224 82.4702 209.732 82.7315C209.244 82.9901 208.675 83.1193 208.028 83.1193Z"/><rect width="285" height="10" x="28" y="145" fill="#A1A1AA" rx="5"/><rect width="226" height="10" x="28" y="167" fill="#A1A1AA" rx="5"/><path fill="#4ECB71" d="M331.035 24.479C331.012 24.6517 331 24.8258 331 25C331 27.378 333.138 29.284 335.521 28.964C336.214 30.198 337.534 31 339 31C340.466 31 341.786 30.198 342.479 28.964C344.857 29.284 347 27.378 347 25C347 24.827 346.988 24.653 346.965 24.479C348.198 23.786 349 22.465 349 21C349 19.535 348.198 18.214 346.965 17.521C346.988 17.347 347 17.173 347 17C347 14.622 344.857 12.712 342.479 13.036C341.786 11.802 340.466 11 339 11C337.534 11 336.214 11.802 335.521 13.036C333.138 12.712 331 14.622 331 17C331 17.173 331.012 17.347 331.035 17.521C329.802 18.214 329 19.535 329 21C329 22.465 329.802 23.786 331.035 24.479ZM332.477 19.076L333.579 18.783L333.145 17.73C333.05 17.4984 333.001 17.2504 333 17C333 15.897 333.897 15 335 15C335.247 15 335.499 15.05 335.73 15.145L336.784 15.579L337.077 14.477C337.19 14.0532 337.44 13.6785 337.787 13.4112C338.135 13.1439 338.561 12.999 339 12.999C339.439 12.999 339.865 13.1439 340.213 13.4112C340.56 13.6785 340.81 14.0532 340.923 14.477L341.216 15.579L342.27 15.145C342.501 15.05 342.753 15 343 15C344.103 15 345 15.897 345 17C345 17.247 344.95 17.5 344.855 17.73L344.421 18.783L345.523 19.076C345.946 19.1903 346.319 19.4406 346.586 19.7884C346.852 20.1362 346.996 20.562 346.996 21C346.996 21.438 346.852 21.8638 346.586 22.2116C346.319 22.5594 345.946 22.8097 345.523 22.924L344.421 23.217L344.855 24.27C344.95 24.5 345 24.753 345 25C345 26.103 344.103 27 343 27C342.753 27 342.501 26.95 342.27 26.855L341.216 26.421L340.923 27.523C340.81 27.9468 340.56 28.3215 340.213 28.5888C339.865 28.8561 339.439 29.001 339 29.001C338.561 29.001 338.135 28.8561 337.787 28.5888C337.44 28.3215 337.19 27.9468 337.077 27.523L336.784 26.421L335.73 26.855C335.498 26.9501 335.25 26.9994 335 27C333.897 27 333 26.103 333 25C333 24.753 333.05 24.5 333.145 24.27L333.579 23.217L332.477 22.924C332.054 22.8097 331.681 22.5594 331.414 22.2116C331.148 21.8638 331.004 21.438 331.004 21C331.004 20.562 331.148 20.1362 331.414 19.7884C331.681 19.4406 332.054 19.1903 332.477 19.076Z"/><path fill="#4ECB71" d="M342.742 19.71L341.334 18.29L338.003 21.589L336.707 20.293L335.293 21.707L337.997 24.411L342.742 19.71Z"/></svg>