<svg xmlns="http://www.w3.org/2000/svg" width="331" height="194" fill="none" viewBox="0 0 331 194"><rect width="330" height="193" x=".5" y=".5" fill="#09090B" fill-opacity=".5" rx="9.5"/><rect width="330" height="193" x=".5" y=".5" stroke="#424242" rx="9.5"/><path fill="#fff" d="M174 55.5C173.258 55.5 172.533 55.7199 171.917 56.132C171.3 56.544 170.819 57.1297 170.535 57.8149C170.252 58.5002 170.177 59.2542 170.322 59.9816C170.467 60.709 170.824 61.3772 171.348 61.9017C171.873 62.4261 172.541 62.7833 173.268 62.9279C173.996 63.0726 174.75 62.9984 175.435 62.7145C176.12 62.4307 176.706 61.9501 177.118 61.3334C177.53 60.7167 177.75 59.9917 177.75 59.25C177.75 58.2554 177.355 57.3016 176.652 56.5983C175.948 55.8951 174.995 55.5 174 55.5ZM174 61.5C173.555 61.5 173.12 61.368 172.75 61.1208C172.38 60.8736 172.092 60.5222 171.921 60.111C171.751 59.6999 171.706 59.2475 171.793 58.811C171.88 58.3746 172.094 57.9737 172.409 57.659C172.724 57.3443 173.125 57.1301 173.561 57.0432C173.998 56.9564 174.45 57.001 174.861 57.1713C175.272 57.3416 175.624 57.63 175.871 58C176.118 58.37 176.25 58.805 176.25 59.25C176.25 59.8467 176.013 60.419 175.591 60.841C175.169 61.2629 174.597 61.5 174 61.5ZM180.75 69.75V69C180.75 67.6076 180.197 66.2723 179.212 65.2877C178.228 64.3031 176.892 63.75 175.5 63.75H172.5C171.108 63.75 169.772 64.3031 168.788 65.2877C167.803 66.2723 167.25 67.6076 167.25 69V69.75H168.75V69C168.75 68.0054 169.145 67.0516 169.848 66.3483C170.552 65.6451 171.505 65.25 172.5 65.25H175.5C176.495 65.25 177.448 65.6451 178.152 66.3483C178.855 67.0516 179.25 68.0054 179.25 69V69.75H180.75Z"/><path stroke="#fff" stroke-linecap="round" stroke-linejoin="round" stroke-width="1.5" d="M127 69.75C128.335 69.75 129.64 69.3541 130.75 68.6124C131.86 67.8707 132.725 66.8165 133.236 65.5831C133.747 64.3497 133.881 62.9925 133.62 61.6831C133.36 60.3738 132.717 59.171 131.773 58.227C130.829 57.283 129.626 56.6402 128.317 56.3797C127.007 56.1193 125.65 56.2529 124.417 56.7638C123.183 57.2747 122.129 58.1399 121.388 59.2499C120.646 60.3599 120.25 61.665 120.25 63C120.25 64.116 120.52 65.1683 121 66.0953L120.25 69.75L123.905 69C124.832 69.48 125.885 69.75 127 69.75Z"/><rect width="171" height="12" x="15" y="25" fill="#D9D9D9" rx="6"/><rect width="48" height="17" x="15" y="55" fill="#fff" rx="8.5"/><path fill="#000" d="M26.1483 68V59.2727H27.465V63.0653H31.8159V59.2727H33.1369V68H31.8159V64.1946H27.465V68H26.1483ZM36.8571 68.1449C36.4423 68.1449 36.0673 68.0682 35.7321 67.9148C35.3968 67.7585 35.1312 67.5327 34.9352 67.2372C34.742 66.9418 34.6454 66.5795 34.6454 66.1506C34.6454 65.7812 34.7164 65.4773 34.8585 65.2386C35.0005 65 35.1923 64.8111 35.4338 64.6719C35.6752 64.5327 35.9451 64.4276 36.2434 64.3565C36.5417 64.2855 36.8457 64.2315 37.1554 64.1946C37.5474 64.1491 37.8656 64.1122 38.1099 64.0838C38.3542 64.0526 38.5318 64.0028 38.6426 63.9347C38.7534 63.8665 38.8088 63.7557 38.8088 63.6023V63.5724C38.8088 63.2003 38.7037 62.9119 38.4934 62.7074C38.286 62.5028 37.9764 62.4006 37.5645 62.4006C37.1355 62.4006 36.7974 62.4957 36.5502 62.6861C36.3059 62.8736 36.1369 63.0824 36.0431 63.3125L34.8457 63.0398C34.9877 62.642 35.1951 62.321 35.4679 62.0767C35.7434 61.8295 36.0602 61.6506 36.4181 61.5398C36.7761 61.4261 37.1525 61.3693 37.5474 61.3693C37.8088 61.3693 38.0858 61.4006 38.3784 61.4631C38.6738 61.5227 38.9494 61.6335 39.2051 61.7955C39.4636 61.9574 39.6752 62.1889 39.84 62.4901C40.0048 62.7884 40.0872 63.1761 40.0872 63.6534V68H38.8429V67.1051H38.7917C38.7093 67.2699 38.5858 67.4318 38.421 67.5909C38.2562 67.75 38.0446 67.8821 37.786 67.9872C37.5275 68.0923 37.2179 68.1449 36.8571 68.1449ZM37.1341 67.1222C37.4863 67.1222 37.7875 67.0526 38.0375 66.9134C38.2903 66.7741 38.4821 66.5923 38.6127 66.3679C38.7463 66.1406 38.813 65.8977 38.813 65.6392V64.7955C38.7676 64.8409 38.6795 64.8835 38.5488 64.9233C38.421 64.9602 38.2747 64.9929 38.1099 65.0213C37.9451 65.0469 37.7846 65.071 37.6284 65.0938C37.4721 65.1136 37.3414 65.1307 37.2363 65.1449C36.9892 65.1761 36.7633 65.2287 36.5588 65.3026C36.3571 65.3764 36.1951 65.483 36.073 65.6222C35.9537 65.7585 35.894 65.9403 35.894 66.1676C35.894 66.483 36.0105 66.7216 36.2434 66.8835C36.4764 67.0426 36.7733 67.1222 37.1341 67.1222ZM41.7843 68V61.4545H43.0158V62.4943H43.084C43.2033 62.142 43.4135 61.8651 43.7147 61.6634C44.0186 61.4588 44.3624 61.3565 44.7459 61.3565C44.8255 61.3565 44.9192 61.3594 45.0272 61.3651C45.138 61.3707 45.2246 61.3778 45.2871 61.3864V62.6051C45.236 62.5909 45.1451 62.5753 45.0144 62.5582C44.8837 62.5384 44.753 62.5284 44.6223 62.5284C44.3212 62.5284 44.0527 62.5923 43.8169 62.7202C43.584 62.8452 43.3993 63.0199 43.263 63.2443C43.1266 63.4659 43.0584 63.7187 43.0584 64.0028V68H41.7843ZM48.6056 68.1278C48.0772 68.1278 47.6056 67.9929 47.1909 67.723C46.7789 67.4503 46.4551 67.0625 46.2193 66.5597C45.9863 66.054 45.8699 65.4474 45.8699 64.7401C45.8699 64.0327 45.9877 63.4276 46.2235 62.9247C46.4622 62.4219 46.7889 62.0369 47.2037 61.7699C47.6184 61.5028 48.0886 61.3693 48.6142 61.3693C49.0204 61.3693 49.3471 61.4375 49.5943 61.5739C49.8443 61.7074 50.0375 61.8636 50.1738 62.0426C50.313 62.2216 50.421 62.3793 50.4977 62.5156H50.5744V59.2727H51.8485V68H50.6042V66.9815H50.4977C50.421 67.1207 50.3102 67.2798 50.1653 67.4588C50.0233 67.6378 49.8272 67.794 49.5772 67.9276C49.3272 68.0611 49.0034 68.1278 48.6056 68.1278ZM48.8869 67.0412C49.2534 67.0412 49.563 66.9446 49.8159 66.7514C50.0716 66.5554 50.2647 66.2841 50.3954 65.9375C50.5289 65.5909 50.5957 65.1875 50.5957 64.7273C50.5957 64.2727 50.5304 63.875 50.3997 63.5341C50.269 63.1932 50.0772 62.9276 49.8244 62.7372C49.5716 62.5469 49.2591 62.4517 48.8869 62.4517C48.5034 62.4517 48.1838 62.5511 47.9281 62.75C47.6724 62.9489 47.4792 63.2202 47.3485 63.5639C47.2207 63.9077 47.1568 64.2955 47.1568 64.7273C47.1568 65.1648 47.2221 65.5582 47.3528 65.9077C47.4835 66.2571 47.6767 66.5341 47.9324 66.7386C48.1909 66.9403 48.5091 67.0412 48.8869 67.0412Z"/><rect width="108" height="17" x="15" y="90" fill="#222226" rx="8.5"/><path fill="#fff" d="M20.9238 105.25V97H21.8145V97.9531H21.9238C21.9915 97.849 22.0853 97.7161 22.2051 97.5547C22.3275 97.3906 22.502 97.2448 22.7285 97.1172C22.9577 96.987 23.2676 96.9219 23.6582 96.9219C24.1634 96.9219 24.6087 97.0482 24.9941 97.3008C25.3796 97.5534 25.6803 97.9115 25.8965 98.375C26.1126 98.8385 26.2207 99.3854 26.2207 100.016C26.2207 100.651 26.1126 101.202 25.8965 101.668C25.6803 102.132 25.3809 102.491 24.998 102.746C24.6152 102.999 24.1738 103.125 23.6738 103.125C23.2884 103.125 22.9798 103.061 22.748 102.934C22.5163 102.803 22.3379 102.656 22.2129 102.492C22.0879 102.326 21.9915 102.187 21.9238 102.078H21.8457V105.25H20.9238ZM21.8301 100C21.8301 100.453 21.8965 100.853 22.0293 101.199C22.1621 101.543 22.3561 101.812 22.6113 102.008C22.8665 102.201 23.179 102.297 23.5488 102.297C23.9342 102.297 24.2559 102.195 24.5137 101.992C24.7741 101.786 24.9694 101.51 25.0996 101.164C25.2324 100.815 25.2988 100.427 25.2988 100C25.2988 99.5781 25.2337 99.1979 25.1035 98.8594C24.9759 98.5182 24.7819 98.2487 24.5215 98.0508C24.2637 97.8503 23.9395 97.75 23.5488 97.75C23.1738 97.75 22.8587 97.8451 22.6035 98.0352C22.3483 98.2227 22.1556 98.4857 22.0254 98.8242C21.8952 99.1602 21.8301 99.5521 21.8301 100ZM28.5488 99.3906V103H27.627V95H28.5488V97.9375H28.627C28.7676 97.6276 28.9785 97.3815 29.2598 97.1992C29.5436 97.0143 29.9212 96.9219 30.3926 96.9219C30.8014 96.9219 31.1595 97.0039 31.4668 97.168C31.7741 97.3294 32.0124 97.5781 32.1816 97.9141C32.3535 98.2474 32.4395 98.6719 32.4395 99.1875V103H31.5176V99.25C31.5176 98.7734 31.3939 98.4049 31.1465 98.1445C30.9017 97.8815 30.5618 97.75 30.127 97.75C29.8249 97.75 29.554 97.8138 29.3145 97.9414C29.0775 98.069 28.89 98.2552 28.752 98.5C28.6165 98.7448 28.5488 99.0417 28.5488 99.3906ZM35.8916 103.141C35.5114 103.141 35.1663 103.069 34.8564 102.926C34.5465 102.78 34.3005 102.57 34.1182 102.297C33.9359 102.021 33.8447 101.687 33.8447 101.297C33.8447 100.953 33.9124 100.674 34.0479 100.461C34.1833 100.245 34.3643 100.076 34.5908 99.9531C34.8174 99.8307 35.0674 99.7396 35.3408 99.6797C35.6169 99.6172 35.8942 99.5677 36.1729 99.5313C36.5374 99.4844 36.833 99.4492 37.0596 99.4258C37.2887 99.3997 37.4554 99.3568 37.5596 99.2969C37.6663 99.237 37.7197 99.1328 37.7197 98.9844V98.9531C37.7197 98.5677 37.6143 98.2682 37.4033 98.0547C37.195 97.8411 36.8786 97.7344 36.4541 97.7344C36.014 97.7344 35.6689 97.8307 35.4189 98.0234C35.1689 98.2161 34.9932 98.4219 34.8916 98.6406L34.0166 98.3281C34.1729 97.9635 34.3812 97.6797 34.6416 97.4766C34.9046 97.2708 35.1911 97.1276 35.501 97.0469C35.8135 96.9635 36.1208 96.9219 36.4229 96.9219C36.6156 96.9219 36.8369 96.9453 37.0869 96.9922C37.3395 97.0365 37.583 97.1289 37.8174 97.2695C38.0544 97.4102 38.251 97.6224 38.4072 97.9062C38.5635 98.1901 38.6416 98.5703 38.6416 99.0469V103H37.7197V102.187H37.6729C37.6104 102.318 37.5062 102.457 37.3604 102.605C37.2145 102.754 37.0205 102.88 36.7783 102.984C36.5361 103.089 36.2406 103.141 35.8916 103.141ZM36.0322 102.312C36.3968 102.312 36.7041 102.241 36.9541 102.098C37.2067 101.954 37.3968 101.77 37.5244 101.543C37.6546 101.316 37.7197 101.078 37.7197 100.828V99.9844C37.6807 100.031 37.5947 100.074 37.4619 100.113C37.3317 100.15 37.1807 100.182 37.0088 100.211C36.8395 100.237 36.6742 100.26 36.5127 100.281C36.3538 100.299 36.2249 100.315 36.126 100.328C35.8864 100.359 35.6624 100.41 35.4541 100.48C35.2484 100.548 35.0817 100.651 34.9541 100.789C34.8291 100.924 34.7666 101.109 34.7666 101.344C34.7666 101.664 34.8851 101.906 35.1221 102.07C35.3617 102.232 35.665 102.312 36.0322 102.312ZM41.2461 99.3906V103H40.3242V97H41.2148V97.9375H41.293C41.4336 97.6328 41.6471 97.388 41.9336 97.2031C42.2201 97.0156 42.5898 96.9219 43.043 96.9219C43.4492 96.9219 43.8047 97.0052 44.1094 97.1719C44.4141 97.3359 44.651 97.5859 44.8203 97.9219C44.9896 98.2552 45.0742 98.6771 45.0742 99.1875V103H44.1523V99.25C44.1523 98.7786 44.0299 98.4115 43.7852 98.1484C43.5404 97.8828 43.2044 97.75 42.7773 97.75C42.4831 97.75 42.2201 97.8138 41.9883 97.9414C41.7591 98.069 41.5781 98.2552 41.4453 98.5C41.3125 98.7448 41.2461 99.0417 41.2461 99.3906ZM49.3682 97V97.7812H46.2588V97H49.3682ZM47.165 95.5625H48.0869V101.281C48.0869 101.542 48.1247 101.737 48.2002 101.867C48.2783 101.995 48.3773 102.081 48.4971 102.125C48.6195 102.167 48.7484 102.187 48.8838 102.187C48.9854 102.187 49.0687 102.182 49.1338 102.172C49.1989 102.159 49.251 102.148 49.29 102.141L49.4775 102.969C49.415 102.992 49.3278 103.016 49.2158 103.039C49.1038 103.065 48.9619 103.078 48.79 103.078C48.5296 103.078 48.2744 103.022 48.0244 102.91C47.777 102.798 47.5713 102.628 47.4072 102.398C47.2458 102.169 47.165 101.88 47.165 101.531V95.5625ZM53.1279 103.125C52.5863 103.125 52.111 102.996 51.7021 102.738C51.2959 102.48 50.9782 102.12 50.749 101.656C50.5225 101.193 50.4092 100.651 50.4092 100.031C50.4092 99.4062 50.5225 98.8607 50.749 98.3945C50.9782 97.9284 51.2959 97.5664 51.7021 97.3086C52.111 97.0508 52.5863 96.9219 53.1279 96.9219C53.6696 96.9219 54.1436 97.0508 54.5498 97.3086C54.9587 97.5664 55.2764 97.9284 55.5029 98.3945C55.7321 98.8607 55.8467 99.4062 55.8467 100.031C55.8467 100.651 55.7321 101.193 55.5029 101.656C55.2764 102.12 54.9587 102.48 54.5498 102.738C54.1436 102.996 53.6696 103.125 53.1279 103.125ZM53.1279 102.297C53.5394 102.297 53.8779 102.191 54.1436 101.98C54.4092 101.77 54.6058 101.492 54.7334 101.148C54.861 100.805 54.9248 100.432 54.9248 100.031C54.9248 99.6302 54.861 99.2565 54.7334 98.9102C54.6058 98.5638 54.4092 98.2839 54.1436 98.0703C53.8779 97.8568 53.5394 97.75 53.1279 97.75C52.7165 97.75 52.3779 97.8568 52.1123 98.0703C51.8467 98.2839 51.6501 98.5638 51.5225 98.9102C51.3949 99.2565 51.3311 99.6302 51.3311 100.031C51.3311 100.432 51.3949 100.805 51.5225 101.148C51.6501 101.492 51.8467 101.77 52.1123 101.98C52.3779 102.191 52.7165 102.297 53.1279 102.297ZM57.2539 103V97H58.1445V97.9375H58.2227C58.3477 97.6172 58.5495 97.3685 58.8281 97.1914C59.1068 97.0117 59.4414 96.9219 59.832 96.9219C60.2279 96.9219 60.5573 97.0117 60.8203 97.1914C61.0859 97.3685 61.293 97.6172 61.4414 97.9375H61.5039C61.6576 97.6276 61.888 97.3815 62.1953 97.1992C62.5026 97.0143 62.8711 96.9219 63.3008 96.9219C63.8372 96.9219 64.276 97.0898 64.6172 97.4258C64.9583 97.7591 65.1289 98.2786 65.1289 98.9844V103H64.207V98.9844C64.207 98.5417 64.0859 98.2253 63.8438 98.0352C63.6016 97.8451 63.3164 97.75 62.9883 97.75C62.5664 97.75 62.2396 97.8776 62.0078 98.1328C61.776 98.3854 61.6602 98.7057 61.6602 99.0937V103H60.7227V98.8906C60.7227 98.5495 60.612 98.2747 60.3906 98.0664C60.1693 97.8555 59.8841 97.75 59.5352 97.75C59.2956 97.75 59.0716 97.8138 58.8633 97.9414C58.6576 98.069 58.4909 98.2461 58.3633 98.4727C58.2383 98.6966 58.1758 98.9557 58.1758 99.25V103H57.2539ZM67.6738 100.812L67.6582 99.6719H67.8457L70.4707 97H71.6113L68.8145 99.8281H68.7363L67.6738 100.812ZM66.8145 103V95H67.7363V103H66.8145ZM70.627 103L68.2832 100.031L68.9395 99.3906L71.7988 103H70.627ZM73.7197 99.3906V103H72.7979V97H73.6885V97.9375H73.7666C73.9072 97.6328 74.1208 97.388 74.4072 97.2031C74.6937 97.0156 75.0635 96.9219 75.5166 96.9219C75.9229 96.9219 76.2783 97.0052 76.583 97.1719C76.8877 97.3359 77.1247 97.5859 77.2939 97.9219C77.4632 98.2552 77.5479 98.6771 77.5479 99.1875V103H76.626V99.25C76.626 98.7786 76.5036 98.4115 76.2588 98.1484C76.014 97.8828 75.6781 97.75 75.251 97.75C74.9567 97.75 74.6937 97.8138 74.4619 97.9414C74.2327 98.069 74.0518 98.2552 73.9189 98.5C73.7861 98.7448 73.7197 99.0417 73.7197 99.3906ZM79.2324 103V97H80.1543V103H79.2324ZM79.7012 96C79.5215 96 79.3665 95.9388 79.2363 95.8164C79.1087 95.694 79.0449 95.5469 79.0449 95.375C79.0449 95.2031 79.1087 95.056 79.2363 94.9336C79.3665 94.8112 79.5215 94.75 79.7012 94.75C79.8809 94.75 80.0345 94.8112 80.1621 94.9336C80.2923 95.056 80.3574 95.2031 80.3574 95.375C80.3574 95.5469 80.2923 95.694 80.1621 95.8164C80.0345 95.9388 79.8809 96 79.7012 96ZM84.2646 105.375C83.8193 105.375 83.4365 105.318 83.1162 105.203C82.7959 105.091 82.529 104.943 82.3154 104.758C82.1045 104.576 81.9365 104.38 81.8115 104.172L82.5459 103.656C82.6292 103.766 82.7347 103.891 82.8623 104.031C82.9899 104.174 83.1644 104.298 83.3857 104.402C83.6097 104.509 83.9027 104.562 84.2646 104.562C84.749 104.562 85.1488 104.445 85.4639 104.211C85.779 103.977 85.9365 103.609 85.9365 103.109V101.891H85.8584C85.7907 102 85.6943 102.135 85.5693 102.297C85.4469 102.456 85.2699 102.598 85.0381 102.723C84.8089 102.845 84.499 102.906 84.1084 102.906C83.624 102.906 83.1891 102.792 82.8037 102.563C82.4209 102.333 82.1175 102 81.8936 101.562C81.6722 101.125 81.5615 100.594 81.5615 99.9687C81.5615 99.3542 81.6696 98.819 81.8857 98.3633C82.1019 97.9049 82.4027 97.5508 82.7881 97.3008C83.1735 97.0482 83.6188 96.9219 84.124 96.9219C84.5146 96.9219 84.8245 96.987 85.0537 97.1172C85.2855 97.2448 85.4626 97.3906 85.585 97.5547C85.71 97.7161 85.8063 97.849 85.874 97.9531H85.9678V97H86.8584V103.172C86.8584 103.688 86.7412 104.107 86.5068 104.43C86.2751 104.755 85.9626 104.993 85.5693 105.145C85.1787 105.298 84.7438 105.375 84.2646 105.375ZM84.2334 102.078C84.6032 102.078 84.9157 101.993 85.1709 101.824C85.4261 101.655 85.6201 101.411 85.7529 101.094C85.8857 100.776 85.9521 100.396 85.9521 99.9531C85.9521 99.5208 85.887 99.1393 85.7568 98.8086C85.6266 98.4779 85.4339 98.2187 85.1787 98.0312C84.9235 97.8437 84.6084 97.75 84.2334 97.75C83.8428 97.75 83.5173 97.849 83.2568 98.0469C82.999 98.2448 82.805 98.5104 82.6748 98.8438C82.5472 99.1771 82.4834 99.5469 82.4834 99.9531C82.4834 100.37 82.5485 100.738 82.6787 101.059C82.8115 101.376 83.0068 101.626 83.2646 101.809C83.5251 101.988 83.848 102.078 84.2334 102.078ZM89.4678 99.3906V103H88.5459V95H89.4678V97.9375H89.5459C89.6865 97.6276 89.8975 97.3815 90.1787 97.1992C90.4626 97.0143 90.8402 96.9219 91.3115 96.9219C91.7204 96.9219 92.0785 97.0039 92.3857 97.168C92.693 97.3294 92.9313 97.5781 93.1006 97.9141C93.2725 98.2474 93.3584 98.6719 93.3584 99.1875V103H92.4365V99.25C92.4365 98.7734 92.3128 98.4049 92.0654 98.1445C91.8206 97.8815 91.4808 97.75 91.0459 97.75C90.7438 97.75 90.473 97.8138 90.2334 97.9414C89.9964 98.069 89.8089 98.2552 89.6709 98.5C89.5355 98.7448 89.4678 99.0417 89.4678 99.3906ZM97.6543 97V97.7812H94.5449V97H97.6543ZM95.4512 95.5625H96.373V101.281C96.373 101.542 96.4108 101.737 96.4863 101.867C96.5645 101.995 96.6634 102.081 96.7832 102.125C96.9056 102.167 97.0345 102.187 97.1699 102.187C97.2715 102.187 97.3548 102.182 97.4199 102.172C97.485 102.159 97.5371 102.148 97.5762 102.141L97.7637 102.969C97.7012 102.992 97.6139 103.016 97.502 103.039C97.39 103.065 97.248 103.078 97.0762 103.078C96.8158 103.078 96.5605 103.022 96.3105 102.91C96.0632 102.798 95.8574 102.628 95.6934 102.398C95.5319 102.169 95.4512 101.88 95.4512 101.531V95.5625ZM99.0254 103V102.297L101.666 99.4062C101.976 99.0677 102.231 98.7734 102.432 98.5234C102.632 98.2708 102.781 98.0339 102.877 97.8125C102.976 97.5885 103.025 97.3542 103.025 97.1094C103.025 96.8281 102.958 96.5846 102.822 96.3789C102.689 96.1732 102.507 96.0143 102.275 95.9023C102.044 95.7904 101.783 95.7344 101.494 95.7344C101.187 95.7344 100.919 95.7982 100.689 95.9258C100.463 96.0508 100.287 96.2266 100.162 96.4531C100.04 96.6797 99.9785 96.9453 99.9785 97.25H99.0566C99.0566 96.7812 99.1647 96.3698 99.3809 96.0156C99.597 95.6615 99.8913 95.3854 100.264 95.1875C100.639 94.9896 101.059 94.8906 101.525 94.8906C101.994 94.8906 102.41 94.9896 102.771 95.1875C103.133 95.3854 103.417 95.6523 103.623 95.9883C103.829 96.3242 103.932 96.6979 103.932 97.1094C103.932 97.4036 103.878 97.6914 103.771 97.9727C103.667 98.2513 103.485 98.5625 103.225 98.9062C102.967 99.2474 102.609 99.6641 102.15 100.156L100.354 102.078V102.141H104.072V103H99.0254ZM108.248 103.109C107.712 103.109 107.238 103.014 106.826 102.824C106.417 102.632 106.098 102.367 105.869 102.031C105.64 101.693 105.527 101.307 105.529 100.875C105.527 100.536 105.593 100.224 105.729 99.9375C105.864 99.6484 106.049 99.4076 106.283 99.2148C106.52 99.0195 106.785 98.8958 107.076 98.8438V98.7969C106.693 98.6979 106.389 98.4831 106.162 98.1523C105.936 97.819 105.824 97.4401 105.826 97.0156C105.824 96.6094 105.926 96.2461 106.135 95.9258C106.343 95.6055 106.63 95.3529 106.994 95.168C107.361 94.9831 107.779 94.8906 108.248 94.8906C108.712 94.8906 109.126 94.9831 109.49 95.168C109.855 95.3529 110.141 95.6055 110.35 95.9258C110.561 96.2461 110.667 96.6094 110.67 97.0156C110.667 97.4401 110.551 97.819 110.322 98.1523C110.096 98.4831 109.795 98.6979 109.42 98.7969V98.8438C109.709 98.8958 109.969 99.0195 110.201 99.2148C110.433 99.4076 110.618 99.6484 110.756 99.9375C110.894 100.224 110.964 100.536 110.967 100.875C110.964 101.307 110.847 101.693 110.615 102.031C110.386 102.367 110.067 102.632 109.658 102.824C109.252 103.014 108.782 103.109 108.248 103.109ZM108.248 102.25C108.61 102.25 108.923 102.191 109.186 102.074C109.449 101.957 109.652 101.792 109.795 101.578C109.938 101.365 110.011 101.115 110.014 100.828C110.011 100.526 109.933 100.259 109.779 100.027C109.626 99.7956 109.416 99.6133 109.15 99.4805C108.887 99.3477 108.587 99.2812 108.248 99.2812C107.907 99.2812 107.602 99.3477 107.334 99.4805C107.068 99.6133 106.859 99.7956 106.705 100.027C106.554 100.259 106.48 100.526 106.482 100.828C106.48 101.115 106.549 101.365 106.689 101.578C106.833 101.792 107.037 101.957 107.303 102.074C107.568 102.191 107.883 102.25 108.248 102.25ZM108.248 98.4531C108.535 98.4531 108.788 98.3958 109.01 98.2812C109.234 98.1667 109.41 98.0065 109.537 97.8008C109.665 97.5951 109.73 97.3542 109.732 97.0781C109.73 96.8073 109.666 96.5716 109.541 96.3711C109.416 96.168 109.243 96.0117 109.021 95.9023C108.8 95.7904 108.542 95.7344 108.248 95.7344C107.949 95.7344 107.687 95.7904 107.463 95.9023C107.239 96.0117 107.066 96.168 106.943 96.3711C106.821 96.5716 106.761 96.8073 106.764 97.0781C106.761 97.3542 106.822 97.5951 106.947 97.8008C107.075 98.0065 107.251 98.1667 107.475 98.2812C107.699 98.3958 107.956 98.4531 108.248 98.4531ZM112.714 103L116.292 95.9219V95.8594H112.167V95H117.292V95.9062L113.729 103H112.714Z"/><path fill="#A1A1AA" d="M129.999 102V101.297L132.64 98.4062C132.95 98.0677 133.205 97.7734 133.405 97.5234C133.606 97.2708 133.754 97.0339 133.851 96.8125C133.95 96.5885 133.999 96.3542 133.999 96.1094C133.999 95.8281 133.931 95.5846 133.796 95.3789C133.663 95.1732 133.481 95.0143 133.249 94.9023C133.017 94.7904 132.757 94.7344 132.468 94.7344C132.16 94.7344 131.892 94.7982 131.663 94.9258C131.437 95.0508 131.261 95.2266 131.136 95.4531C131.013 95.6797 130.952 95.9453 130.952 96.25H130.03C130.03 95.7812 130.138 95.3698 130.354 95.0156C130.571 94.6615 130.865 94.3854 131.237 94.1875C131.612 93.9896 132.033 93.8906 132.499 93.8906C132.968 93.8906 133.383 93.9896 133.745 94.1875C134.107 94.3854 134.391 94.6523 134.597 94.9883C134.802 95.3242 134.905 95.6979 134.905 96.1094C134.905 96.4036 134.852 96.6914 134.745 96.9727C134.641 97.2513 134.459 97.5625 134.198 97.9062C133.94 98.2474 133.582 98.6641 133.124 99.1562L131.327 101.078V101.141H135.046V102H129.999ZM136.659 102V101.297L139.3 98.4062C139.61 98.0677 139.865 97.7734 140.065 97.5234C140.266 97.2708 140.414 97.0339 140.511 96.8125C140.61 96.5885 140.659 96.3542 140.659 96.1094C140.659 95.8281 140.591 95.5846 140.456 95.3789C140.323 95.1732 140.141 95.0143 139.909 94.9023C139.677 94.7904 139.417 94.7344 139.128 94.7344C138.821 94.7344 138.552 94.7982 138.323 94.9258C138.097 95.0508 137.921 95.2266 137.796 95.4531C137.674 95.6797 137.612 95.9453 137.612 96.25H136.69C136.69 95.7812 136.799 95.3698 137.015 95.0156C137.231 94.6615 137.525 94.3854 137.897 94.1875C138.272 93.9896 138.693 93.8906 139.159 93.8906C139.628 93.8906 140.043 93.9896 140.405 94.1875C140.767 94.3854 141.051 94.6523 141.257 94.9883C141.463 95.3242 141.565 95.6979 141.565 96.1094C141.565 96.4036 141.512 96.6914 141.405 96.9727C141.301 97.2513 141.119 97.5625 140.858 97.9062C140.601 98.2474 140.243 98.6641 139.784 99.1562L137.987 101.078V101.141H141.706V102H136.659ZM148.694 102.125C148.194 102.125 147.753 101.999 147.37 101.746C146.987 101.491 146.688 101.132 146.472 100.668C146.256 100.202 146.147 99.651 146.147 99.0156C146.147 98.3854 146.256 97.8385 146.472 97.375C146.688 96.9115 146.989 96.5534 147.374 96.3008C147.759 96.0482 148.205 95.9219 148.71 95.9219C149.101 95.9219 149.409 95.987 149.636 96.1172C149.865 96.2448 150.039 96.3906 150.159 96.5547C150.282 96.7161 150.377 96.849 150.444 96.9531H150.522V94H151.444V102H150.554V101.078H150.444C150.377 101.187 150.28 101.326 150.155 101.492C150.03 101.656 149.852 101.803 149.62 101.934C149.388 102.061 149.08 102.125 148.694 102.125ZM148.819 101.297C149.189 101.297 149.502 101.201 149.757 101.008C150.012 100.812 150.206 100.543 150.339 100.199C150.472 99.8529 150.538 99.4531 150.538 99C150.538 98.5521 150.473 98.1602 150.343 97.8242C150.213 97.4857 150.02 97.2227 149.765 97.0352C149.509 96.8451 149.194 96.75 148.819 96.75C148.429 96.75 148.103 96.8503 147.843 97.0508C147.585 97.2487 147.391 97.5182 147.261 97.8594C147.133 98.1979 147.069 98.5781 147.069 99C147.069 99.4271 147.134 99.8151 147.265 100.164C147.397 100.51 147.593 100.786 147.851 100.992C148.111 101.195 148.434 101.297 148.819 101.297ZM155.026 102.141C154.646 102.141 154.301 102.069 153.991 101.926C153.681 101.78 153.435 101.57 153.253 101.297C153.071 101.021 152.979 100.687 152.979 100.297C152.979 99.9531 153.047 99.6745 153.183 99.4609C153.318 99.2448 153.499 99.0755 153.726 98.9531C153.952 98.8307 154.202 98.7396 154.476 98.6797C154.752 98.6172 155.029 98.5677 155.308 98.5313C155.672 98.4844 155.968 98.4492 156.194 98.4258C156.424 98.3997 156.59 98.3568 156.694 98.2969C156.801 98.237 156.854 98.1328 156.854 97.9844V97.9531C156.854 97.5677 156.749 97.2682 156.538 97.0547C156.33 96.8411 156.013 96.7344 155.589 96.7344C155.149 96.7344 154.804 96.8307 154.554 97.0234C154.304 97.2161 154.128 97.4219 154.026 97.6406L153.151 97.3281C153.308 96.9635 153.516 96.6797 153.776 96.4766C154.039 96.2708 154.326 96.1276 154.636 96.0469C154.948 95.9635 155.256 95.9219 155.558 95.9219C155.75 95.9219 155.972 95.9453 156.222 95.9922C156.474 96.0365 156.718 96.1289 156.952 96.2695C157.189 96.4102 157.386 96.6224 157.542 96.9062C157.698 97.1901 157.776 97.5703 157.776 98.0469V102H156.854V101.187H156.808C156.745 101.318 156.641 101.457 156.495 101.605C156.349 101.754 156.155 101.88 155.913 101.984C155.671 102.089 155.375 102.141 155.026 102.141ZM155.167 101.312C155.532 101.312 155.839 101.241 156.089 101.098C156.341 100.954 156.532 100.77 156.659 100.543C156.789 100.316 156.854 100.078 156.854 99.8281V98.9844C156.815 99.0312 156.729 99.0742 156.597 99.1133C156.466 99.1497 156.315 99.1823 156.144 99.2109C155.974 99.237 155.809 99.2604 155.647 99.2812C155.489 99.2995 155.36 99.3151 155.261 99.3281C155.021 99.3594 154.797 99.4102 154.589 99.4805C154.383 99.5482 154.216 99.651 154.089 99.7891C153.964 99.9245 153.901 100.109 153.901 100.344C153.901 100.664 154.02 100.906 154.257 101.07C154.496 101.232 154.8 101.312 155.167 101.312ZM159.838 104.25C159.682 104.25 159.542 104.237 159.42 104.211C159.298 104.188 159.213 104.164 159.166 104.141L159.4 103.328C159.624 103.385 159.822 103.406 159.994 103.391C160.166 103.375 160.318 103.298 160.451 103.16C160.587 103.025 160.71 102.805 160.822 102.5L160.994 102.031L158.775 96H159.775L161.432 100.781H161.494L163.15 96H164.15L161.604 102.875C161.489 103.185 161.347 103.441 161.178 103.645C161.008 103.85 160.812 104.003 160.588 104.102C160.367 104.201 160.117 104.25 159.838 104.25ZM169.617 97.3437L168.789 97.5781C168.737 97.4401 168.66 97.306 168.559 97.1758C168.46 97.043 168.324 96.9336 168.152 96.8477C167.98 96.7617 167.76 96.7187 167.492 96.7187C167.125 96.7187 166.819 96.8034 166.574 96.9727C166.332 97.1393 166.211 97.3516 166.211 97.6094C166.211 97.8385 166.294 98.0195 166.461 98.1523C166.628 98.2852 166.888 98.3958 167.242 98.4844L168.133 98.7031C168.669 98.8333 169.069 99.0326 169.332 99.3008C169.595 99.5664 169.727 99.9089 169.727 100.328C169.727 100.672 169.628 100.979 169.43 101.25C169.234 101.521 168.961 101.734 168.609 101.891C168.258 102.047 167.849 102.125 167.383 102.125C166.771 102.125 166.264 101.992 165.863 101.727C165.462 101.461 165.208 101.073 165.102 100.562L165.977 100.344C166.06 100.667 166.217 100.909 166.449 101.07C166.684 101.232 166.99 101.312 167.367 101.312C167.797 101.312 168.138 101.221 168.391 101.039C168.646 100.854 168.773 100.633 168.773 100.375C168.773 100.167 168.701 99.9922 168.555 99.8516C168.409 99.7083 168.185 99.6016 167.883 99.5312L166.883 99.2969C166.333 99.1667 165.93 98.9648 165.672 98.6914C165.417 98.4154 165.289 98.0703 165.289 97.6562C165.289 97.3177 165.384 97.0182 165.574 96.7578C165.767 96.4974 166.029 96.293 166.359 96.1445C166.693 95.9961 167.07 95.9219 167.492 95.9219C168.086 95.9219 168.552 96.0521 168.891 96.3125C169.232 96.5729 169.474 96.9167 169.617 97.3437ZM175.974 102.141C175.593 102.141 175.248 102.069 174.938 101.926C174.629 101.78 174.382 101.57 174.2 101.297C174.018 101.021 173.927 100.687 173.927 100.297C173.927 99.9531 173.994 99.6745 174.13 99.4609C174.265 99.2448 174.446 99.0755 174.673 98.9531C174.899 98.8307 175.149 98.7396 175.423 98.6797C175.699 98.6172 175.976 98.5677 176.255 98.5313C176.619 98.4844 176.915 98.4492 177.142 98.4258C177.371 98.3997 177.537 98.3568 177.642 98.2969C177.748 98.237 177.802 98.1328 177.802 97.9844V97.9531C177.802 97.5677 177.696 97.2682 177.485 97.0547C177.277 96.8411 176.961 96.7344 176.536 96.7344C176.096 96.7344 175.751 96.8307 175.501 97.0234C175.251 97.2161 175.075 97.4219 174.974 97.6406L174.099 97.3281C174.255 96.9635 174.463 96.6797 174.724 96.4766C174.987 96.2708 175.273 96.1276 175.583 96.0469C175.896 95.9635 176.203 95.9219 176.505 95.9219C176.698 95.9219 176.919 95.9453 177.169 95.9922C177.422 96.0365 177.665 96.1289 177.899 96.2695C178.136 96.4102 178.333 96.6224 178.489 96.9062C178.646 97.1901 178.724 97.5703 178.724 98.0469V102H177.802V101.187H177.755C177.692 101.318 177.588 101.457 177.442 101.605C177.297 101.754 177.103 101.88 176.86 101.984C176.618 102.089 176.323 102.141 175.974 102.141ZM176.114 101.312C176.479 101.312 176.786 101.241 177.036 101.098C177.289 100.954 177.479 100.77 177.606 100.543C177.737 100.316 177.802 100.078 177.802 99.8281V98.9844C177.763 99.0312 177.677 99.0742 177.544 99.1133C177.414 99.1497 177.263 99.1823 177.091 99.2109C176.922 99.237 176.756 99.2604 176.595 99.2812C176.436 99.2995 176.307 99.3151 176.208 99.3281C175.968 99.3594 175.744 99.4102 175.536 99.4805C175.33 99.5482 175.164 99.651 175.036 99.7891C174.911 99.9245 174.849 100.109 174.849 100.344C174.849 100.664 174.967 100.906 175.204 101.07C175.444 101.232 175.747 101.312 176.114 101.312ZM182.828 104.375C182.383 104.375 182 104.318 181.68 104.203C181.359 104.091 181.092 103.943 180.879 103.758C180.668 103.576 180.5 103.38 180.375 103.172L181.109 102.656C181.193 102.766 181.298 102.891 181.426 103.031C181.553 103.174 181.728 103.298 181.949 103.402C182.173 103.509 182.466 103.562 182.828 103.562C183.313 103.562 183.712 103.445 184.027 103.211C184.342 102.977 184.5 102.609 184.5 102.109V100.891H184.422C184.354 101 184.258 101.135 184.133 101.297C184.01 101.456 183.833 101.598 183.602 101.723C183.372 101.845 183.063 101.906 182.672 101.906C182.188 101.906 181.753 101.792 181.367 101.563C180.984 101.333 180.681 101 180.457 100.562C180.236 100.125 180.125 99.5937 180.125 98.9687C180.125 98.3542 180.233 97.819 180.449 97.3633C180.665 96.9049 180.966 96.5508 181.352 96.3008C181.737 96.0482 182.182 95.9219 182.687 95.9219C183.078 95.9219 183.388 95.987 183.617 96.1172C183.849 96.2448 184.026 96.3906 184.148 96.5547C184.273 96.7161 184.37 96.849 184.438 96.9531H184.531V96H185.422V102.172C185.422 102.688 185.305 103.107 185.07 103.43C184.839 103.755 184.526 103.993 184.133 104.145C183.742 104.298 183.307 104.375 182.828 104.375ZM182.797 101.078C183.167 101.078 183.479 100.993 183.734 100.824C183.99 100.655 184.184 100.411 184.316 100.094C184.449 99.776 184.516 99.3958 184.516 98.9531C184.516 98.5208 184.451 98.1393 184.32 97.8086C184.19 97.4779 183.997 97.2187 183.742 97.0312C183.487 96.8437 183.172 96.75 182.797 96.75C182.406 96.75 182.081 96.849 181.82 97.0469C181.563 97.2448 181.368 97.5104 181.238 97.8438C181.111 98.1771 181.047 98.5469 181.047 98.9531C181.047 99.3698 181.112 99.7383 181.242 100.059C181.375 100.376 181.57 100.626 181.828 100.809C182.089 100.988 182.411 101.078 182.797 101.078ZM189.547 102.125C189.005 102.125 188.53 101.996 188.121 101.738C187.715 101.48 187.397 101.12 187.168 100.656C186.941 100.193 186.828 99.651 186.828 99.0312C186.828 98.4062 186.941 97.8607 187.168 97.3945C187.397 96.9284 187.715 96.5664 188.121 96.3086C188.53 96.0508 189.005 95.9219 189.547 95.9219C190.089 95.9219 190.563 96.0508 190.969 96.3086C191.378 96.5664 191.695 96.9284 191.922 97.3945C192.151 97.8607 192.266 98.4062 192.266 99.0312C192.266 99.651 192.151 100.193 191.922 100.656C191.695 101.12 191.378 101.48 190.969 101.738C190.563 101.996 190.089 102.125 189.547 102.125ZM189.547 101.297C189.958 101.297 190.297 101.191 190.562 100.98C190.828 100.77 191.025 100.492 191.152 100.148C191.28 99.8047 191.344 99.4323 191.344 99.0312C191.344 98.6302 191.28 98.2565 191.152 97.9102C191.025 97.5638 190.828 97.2839 190.562 97.0703C190.297 96.8568 189.958 96.75 189.547 96.75C189.135 96.75 188.797 96.8568 188.531 97.0703C188.266 97.2839 188.069 97.5638 187.941 97.9102C187.814 98.2565 187.75 98.6302 187.75 99.0312C187.75 99.4323 187.814 99.8047 187.941 100.148C188.069 100.492 188.266 100.77 188.531 100.98C188.797 101.191 189.135 101.297 189.547 101.297Z"/><path fill="#fff" d="M78 62V71H75V62H78ZM81 71C80.6022 71 80.2206 70.842 79.9393 70.5607C79.658 70.2794 79.5 69.8978 79.5 69.5V62C79.5 61.5875 79.665 61.2125 79.9425 60.9425L84.8775 56L85.6725 56.795C85.875 56.9975 86.0025 57.275 86.0025 57.5825L85.98 57.8225L85.2675 61.25H90C90.3978 61.25 90.7794 61.408 91.0607 61.6893C91.342 61.9706 91.5 62.3522 91.5 62.75V64.25C91.5 64.445 91.4625 64.625 91.395 64.7975L89.13 70.085C88.905 70.625 88.3725 71 87.75 71H81ZM81 69.5H87.7725L90 64.25V62.75H83.4075L84.255 58.76L81 62.0225V69.5Z"/><path fill="#fff" d="M99.9379 59.2727V68H98.0927V61.0241H98.0415L96.043 62.277V60.6406L98.2035 59.2727H99.9379ZM105.434 68.1918C104.701 68.1889 104.07 68.0085 103.542 67.6506C103.016 67.2926 102.612 66.7741 102.327 66.0952C102.046 65.4162 101.907 64.5994 101.91 63.6449C101.91 62.6932 102.05 61.8821 102.332 61.2116C102.616 60.5412 103.021 60.0312 103.546 59.6818C104.075 59.3295 104.704 59.1534 105.434 59.1534C106.164 59.1534 106.792 59.3295 107.317 59.6818C107.846 60.0341 108.252 60.5455 108.536 61.2159C108.82 61.8835 108.961 62.6932 108.958 63.6449C108.958 64.6023 108.816 65.4205 108.532 66.0994C108.251 66.7784 107.847 67.2969 107.322 67.6548C106.796 68.0128 106.167 68.1918 105.434 68.1918ZM105.434 66.6619C105.934 66.6619 106.333 66.4105 106.631 65.9077C106.93 65.4048 107.077 64.6506 107.075 63.6449C107.075 62.983 107.006 62.4318 106.87 61.9915C106.737 61.5511 106.546 61.2202 106.299 60.9986C106.055 60.777 105.766 60.6662 105.434 60.6662C104.937 60.6662 104.539 60.9148 104.241 61.4119C103.942 61.9091 103.792 62.6534 103.789 63.6449C103.789 64.3153 103.856 64.875 103.989 65.3239C104.126 65.7699 104.317 66.1051 104.565 66.3295C104.812 66.5511 105.102 66.6619 105.434 66.6619Z"/><path fill="#fff" d="M145.789 58.2727V67H143.944V60.0241H143.893L141.895 61.277V59.6406L144.055 58.2727H145.789ZM147.864 67V65.6705L150.97 62.794C151.234 62.5384 151.456 62.3082 151.635 62.1037C151.817 61.8991 151.955 61.6989 152.048 61.5028C152.142 61.304 152.189 61.0895 152.189 60.8594C152.189 60.6037 152.131 60.3835 152.014 60.1989C151.898 60.0114 151.739 59.8679 151.537 59.7685C151.335 59.6662 151.107 59.6151 150.851 59.6151C150.584 59.6151 150.351 59.669 150.152 59.777C149.953 59.8849 149.8 60.0398 149.692 60.2415C149.584 60.4432 149.53 60.6832 149.53 60.9616H147.778C147.778 60.3906 147.908 59.8949 148.166 59.4744C148.425 59.054 148.787 58.7287 149.253 58.4986C149.719 58.2685 150.256 58.1534 150.864 58.1534C151.489 58.1534 152.033 58.2642 152.496 58.4858C152.962 58.7045 153.324 59.0085 153.582 59.3977C153.841 59.7869 153.97 60.233 153.97 60.7358C153.97 61.0653 153.905 61.3906 153.774 61.7116C153.646 62.0327 153.418 62.3892 153.088 62.7812C152.759 63.1705 152.294 63.6378 151.695 64.1832L150.42 65.4318V65.4915H154.085V67H147.864Z"/><path fill="#fff" d="M191.928 67V65.6705L195.035 62.794C195.299 62.5384 195.52 62.3082 195.699 62.1037C195.881 61.8991 196.019 61.6989 196.113 61.5028C196.206 61.304 196.253 61.0895 196.253 60.8594C196.253 60.6037 196.195 60.3835 196.079 60.1989C195.962 60.0114 195.803 59.8679 195.601 59.7685C195.4 59.6662 195.171 59.6151 194.915 59.6151C194.648 59.6151 194.415 59.669 194.216 59.777C194.018 59.8849 193.864 60.0398 193.756 60.2415C193.648 60.4432 193.594 60.6832 193.594 60.9616H191.843C191.843 60.3906 191.972 59.8949 192.231 59.4744C192.489 59.054 192.851 58.7287 193.317 58.4986C193.783 58.2685 194.32 58.1534 194.928 58.1534C195.553 58.1534 196.097 58.2642 196.56 58.4858C197.026 58.7045 197.388 59.0085 197.647 59.3977C197.905 59.7869 198.035 60.233 198.035 60.7358C198.035 61.0653 197.969 61.3906 197.839 61.7116C197.711 62.0327 197.482 62.3892 197.153 62.7812C196.823 63.1705 196.358 63.6378 195.759 64.1832L194.485 65.4318V65.4915H198.15V67H191.928Z"/><rect width="285" height="10" x="15" y="129" fill="#A1A1AA" rx="5"/><rect width="226" height="10" x="15" y="151" fill="#A1A1AA" rx="5"/></svg>